<svg version="1.2" xmlns="http://www.w3.org/2000/svg" viewBox="0 0 2000 1280" width="2000" height="1280"><defs><filter x="-50%" y="-50%" width="200%" height="200%" id="f1" ><feDropShadow dx="0" dy="0" stdDeviation="4.583333333333334" flood-color="#000000" flood-opacity="1.5"/></filter></defs><style>.a{filter:url(#f1);fill:none;stroke:#000;stroke-linecap:round;stroke-linejoin:round;stroke-width:2.5}</style><path class="a" d="m844.9 377.1l-4.4 5.1-13.9 13.1-13.8 4.4-1.6 2.2-8.5 2.2-5.3-0.7-6.5 8-0.8 3.7-3.7 3.6v3.7l-4.5 5.9-3.6 0.8-8.5 5.7-6.1-2v4.4l-8.6 0.4 0.4 4.5-4 6.5-1.7 12.6-5.2 10.2h-2.9l1.6 9.3-3.6 8.9-0.8 7.4-1.6 5.2-4.9-1.6-2.5 2-3.6-2-4.1-7.3-6.9-0.8-7.3-2.9-5.7-8.9-2-7.7-5.3-6.1-2-5.7 1.2-6.1-4.5-2.8v-10.2l-5.7-7.3-1.6-6.5 1.6-5.2-2.8-8 2-5.9 0.8-7.3h3.7l1.6-5.1 6.5-0.7-0.8-8.1 1.6-8.7-2.4-5.2-3.7 0.8-6.5-5.2-3.6-0.7-3.7-4.4 2.9-2.9 8.1 2.2 3.6 3.7 6.5 2.1-3.6-8-3.7-2.9-4.4-8.8-4.9-2.9-0.8 4.4-5.3 1.4-5.7-4.4 2-7.3 3.3-3.6v-3.7l2-6.6-5.3-4.4 1.7-5.8-4.5-5.1-1.2-7.3 0.4-8.8-4.1-5.1v-3.7l-3.6 0.7-0.9-5.1-2.8-1.4 1.2-6.6-4.9-5.1-3.6-4.4-6.1-4.4h-15.9l-3.2-1.5-2.8 3.7-3.7 0.7v-3.7l-2.8-2.1-2.9 7.3-8.9-3-5.7-5.8 3.6-5.1-10.1-5.2-3.7-5.1 2.9-4.4 8.1-0.7 4.1-2.9h8.9l-1.6-8-2.1 3.6-8.9 1.5-5.7-2.2-2-5.8-6.9-2.2-4.9-7.4 2-9.5 16.3-8 2-4.4 8.1-4.4 6.5-0.7 8.2-10.2-0.8-16.9h-11l-2-8 3.6-7.3 8.5-7.3 1.7-7.4 9.3-8 7.3 5.1 4.5-2.9v-11l-2-12.4 13.8-11 21.9-10.2 9 19 18.2-2.2-6.9-9.5-1.2-13.2h7.3l11.8 13.2 13 7.3 1.6-10.2 4.1-3.7-13.8-30 17-9.5 7.4 2.2 6.5 10.2 8.1 0.8 2-21.2 32.9-8.8 14.7 2.2 20.3 9.5 7.3 21.2 17.9 11.7-6.1 11.7-13.8 7.3-13.9-1.4-7.3 7.3 20.3 0.7-0.8 8.8 6.1 1.4 1.2-10.9 9-3 2 11.8 6.9 7.3 11 1.4 10.1-14.6h10.2l14.6 13.2-13.8 21.9-10.1 8.1 2 5.1-9.4 23.4-6.9 0.7-2.8 9.5 0.8 9.5-6.5 13.9-6.5 24.1 5.7-6.5 5.3 6.5-2.5 5.2 5.3 3.6h5.7l1.6 9.5-0.8 3.6-8.9-3.6-6.5 2.2-2.9 5.1 0.8 4.4 10.2 7.3 1.6 18.3-6.9 1.5-0.4 7.3 2.9 3.6 4.8 3.7-2 4.4h-2.8l-0.8-3.7h-7.4l-2.8 6.6 8.1 4.4v8h-5.3l-2.8 4.4-6.1-3.6-3.7-3-6.5 2.2-4.4 5.1 6.1 3 2.8 11.7 10.2 8.7 1.6 7.4 2 2.9 1.6 8.8-4.4 5.1h-5.3l-4.1-5.9-0.8-5.1-2.4-3.6-3.7-0.8-1.2 3-4.5 3.6h-6.5l-2.8 9.5 7.3-1.4 2.9 4.3 3.6-2.9h3.7l7.3 4.4zm-241.3-324l24 5.1 4.4 11 7.3 3.7 2.5 8.7-6.9 9.5-11 11-1.2 11.7-15.5 16.8-9.3 16.9-7.3 8.7-2.5 11-10.9 7.3-7.3 8.8-1.3 17.5-4.4 12.5-12.6 8.8-1.2 10.2-5.3 3.6 1.6 7.3 5.7-0.7v6.6l-15.5 11.7-2.8-8.8-8.1 3.7-8.1-1.5-4.9 3.7-11.8-3-9.4-0.7-1.6-9.5 9.4-11.7-2.1-11.7 4.5-2.2 5.7 3 2.4 8 6.5 4.3-3.6-12.3-5.3-6.6-7.3-2.2v-7.3l5.3-11 9.3-1.5 2.9-2.9-1.3-12.4-5.2-8.8-4.9-2.2v-16.1l14.6 1.5 15.8-6.6-1.2-5.9-7.3 3-7.3-6.6-3.2 8-10.2-0.7-11-5.1-5.7-5.1-5.2-11 2.4-5.1-11-11.7 7.7-9.5 9.8-6.6h10.2l10.9-15.4 9 8.8 4-17.6 14.6-13.1 7 5.1 11.3-8.8 13.4 5.1 7.4-7.3zm123.5 36.6l-10.2-13.2-3.6-9.5 8.1-1.4 9.4 10.9-3.7 7.3zm752.9 64.4l-12 6.6-2-8-10-0.8 7-7.3-2-8.7 4-7.4 9-4.3 5-5.9 5 11.7 2 9.5v13.9zm-969.5 18.3l3.7 10.3-7.3 5.1-8.6 16.1-12.5 8.7-9.4-1.4-4.5-5.9-7.3-15.3 5.3-4.4 5.7-1.5-4.5-5.1-3.6 2.9h-8.2l-8.5-24.1 6.5-9.5-2-5.9 4-14.6 10.6-2.2 6.5-5.1 7.3 22.7 15.9 4.4 0.8 7.3 5.3 16.1zm800.5-35.1l-5 1.5-4-5.1 14-10.3 1 7.3zm-81 17.6l-5 1.4v-5.8l8-10.3-3-5.1 10-3.6 4 5.8-4 6.6-7 1.5zm70-19l-7 12.4-8-5.1 2-8.8 11-2.2zm-74-0.8l-12 11.7-5-6.6zm-113 22.7v8l-7 6.6 1 3-12 9.5-6-6.6-10 0.7-11-9.5-3-5.9 1-8 18-0.7 3 5.8v-11.7l12 1.5 6 4.4zm160-8v8l-7-1.5 1-5.8zm216 5.8l2 8 7-4.3 4 8-3 14.6 3 8.8-8 5.1-6-1.4-4-4.4-9-1.5-4-5.8v-5.9l-3-4.4 7-14.6zm-21 9.5l-6 5.9-8-5.9v-5.8l10 0.7zm-407-1.5l8 13.2v8.1l14 9.5-1 4.4-9 1.4-3 4.4v9.5l-4 2.2v12.4l-3 0.8-3 18.9-4 3-11-13.9-3-8.8 3-5.8-1-5.1 8-9.5-3-7.4-5 8.1-7 1.5-6-10.3-2-9.5-4-15.3 3-8.1 9 2.9 3 5.9 5-9.5 6-0.8 5-6.5zm-624 38.1l-1.6 7.3 4.4 6.6-5.2 6.6-3.7-2.2-2-8.1-11.8-5.1-7.3 2.9-1.4-8 5.1-4.4-1.5-6.6-8-2.2 0.7-7.3 8-1.5 19.8 14.7zm1081-21.2l-2 8 7-2.2 7 8.8v8.8l-8 5.8-14 2.2-6 5.9-3-5.2 11-32.1zm-1059.1 37.3l-8.1 4.4-5.3-5.9-2.8-11v-8.7l3.6-1.5 14.7 11zm-75.4-8.8l-11 0.7-8 0.8v-3l13.9-10.9 6.6 7.3zm702.5 0.7l-5 2.2-6-7.3 10-2.9zm11 15.4l-1 4.4-8 5.8-2-5.8-6 1.4 3-11.7-3-5.8 10-2.9 2 6.5zm-716.4 2.9l-11 5.8-5.9-5.1v-9.5l10.3-4.4 8.8-0.7zm89.7-3.7l-2 6.6-12.6-0.7 1.6-7.3zm661.7 153.6l5 2.2 2-4.4 6 4.4 2 5.1 10 0.7 3 1.5 10 8 9 8.8 7 4.4 2 12.4-5 5.9-9 4.3-9-2.8-8-1.5-3-2.9-7-1.5-1 1.5 8 9.7-1 8.5 1 5.3v2.8l4 2.1 3 4.4 7 2.9 3-2.9-2-4.4h-3l-4-5.7 3-4.5 6 4.5 8 3.6 4-2.8-3-7.3 1-2.9 4-4.4 4-1.7 4-5.8 6 0.8 4 5 2-8v-3.6l-3-4.4 1-5.9 1-12.4 6-0.7 3 1.4 3 5.2 1 4.3-7 1.5-2 5.1 3 3 2 4.3h6l3-2.2 2-9.5 5-0.7 8-7.3 18-10.2-1 4.3 3 6.6 6-5.1 7-1.5 4 1.5 3-4.4 5-2.2 5 5.1 6-3.6-4-11 4-3.6 13 2.9 4 2.2 9 6.6 7 3.6 6 7.3 2-0.7 3-6.6-4-2.2-2-5.8-6-5.9 3-15.3-4-0.8 1-8 5-4.4 3-5.1 3-15.4 4-2.9 10-0.7 7 3.6v7.3l-4 11.7 4 13.2-1 6.6-2 2.2 2 6.6-2 10.2 2 5.1 5 5.1-3 3.7 1 5.8-4 3-1 4.4-4 8.7-5 2.2-4-4.4-4 3 6 3.6 11 0.8v-3.7l7-3.7 2-6.5 4-5.2v-6.5l-2-3v-5.1l10-4.4 6 7.3 1 5.9 3-2.2-3-9.5-5-3.7-6-1.4-4 2.2-5-1.5v-4.4l-1-4.4v-5.8l4-5.9-4-11.7-3-2.9 3-7.3 7-5.1 3-11 1 8.8-3 8 1 7.3 6 2.2 5-1.4-6-5.2-1-4.4 5-2.9 3 3.7 1-6.6 4-2.9h5l12 11.7 5-1.5 1 6.6-3 2.2-1 4.4 6 2.2-1 8.7 4-2.1-3-12.5 3-6.6-6-4.4-3-7.3-4-0.7-4-3.7 1-8-1-11 5-1.4h10l18-4.4-2-11 1-5.1 6-5.1 7-10.3 25-9.5-1-2.9 10-2.9 8 5.1 12-9.5 2-2.9h5l4-3-2-6.5 2-5.2 11-13.1 6-0.7 9 6.5-2 7.3 9 2.2 1 2.2m-1195.1 8.1l-6.6 6.6-5.8-3.7-5.1 11.7h-15.4l-2.9-3.7 3.6-7.3 4.4-0.7 7.3-13.2 8.1-8.7 10.2 1.4 4.4 14.6zm121.4-8.1l2.8 7.3 9-2.2 2.8 12.5-1.6 6.6 5.3-2.2 10.1 9.5 5.3-2.2 4.9 4.4 12.6-8.8h9.3l10.6 4.4 4 5.1-0.4 7.3-3.6 9.5-8.1 2.2-9-2.9-4.4 2.2-18.3 0.7-7.3-2.9-4.1 1.4-8.9-2.1-5.3-11.7 2.4-8.1-3.6-13.9-11-1.4-6.1-3-4.9-12.4 5.7-2.9zm863.7 14.7l-7 5.1-27 14.6-8 7.3v5.1l-5 2.2-4 8.8-5 3.7 1 4.3-7 11-9-3.6h-3l-3-6.6 7-7.3 3-9.5 4-1.5v-4.4l3-9.5 6-4.4 4-5.8 6-3 9-7.3 4 2.9 9-2.9 12-12.4 6-3.7 5 1.5 3 3.6v5.9zm210-14.7l-6 9.5 8-0.7v-4.4l17-0.7 9 10.2 3 1.5 3 8.8-2 4.3 1 8.1-5 5.8-3 2.2-3 4.4-9 5.9-1 3.6-4 3-5 7.3-5 0.7-6 8.8h9l13-6.6-3-5.9 3-4.3 10 6.5 4-0.7 4 4.4 9-3.7 11 2.2h7l-1 7.3 8 3 11 2.9 8 2.9 7 1.5 7 6.6 8-1.5 9 13.9 3 7.3 6 5.9 3-2.2 6-16.9 3 5.2 7 3.6 6-4.4 5 0.8 5 4.4 3-4.4 4-1.5 3 2.9 3-0.7-2-6.6 2-5.8 6-8.1 3-0.7 10 0.7 8 5.1-1 3.7 13-2.2h6l7 3.7 1 2.9-1 5.1 10 5.9 5 8 6-0.7 12-3.7 11 0.7 9 5.9 2 7.3-2 5.1 7 4.4 3 3.7 4-4.4 10-1.5 2 2.2 13 2.2 5-4.4 2 3.7v3.6l6 3.7v2.9h5l4-2.9-3-8.1v-8l11 2.2 3 1.5 16-0.8 13 8.8 4 0.7 4 4.4 3 1.5 3 2.2 1 2.9 2 1.5 15 10.9 4 12.5 2 2.2 2-2.2-2-3.7 3-1.4 6 2.9 3-0.8 10 11.2 2 0.4-4 3.7v2.4l-3 1.2-4 0.9-2 2.8v2.8l-2 2.5-1 2.8 2 1.6-3 2.9-5-1.6-3-3.7-5-1.2-3-2.4v-5.7l-5-2.1-3 1.3-5 0.8-2-5.3 1-4.1-5 0.4-1 3.3 2 4-1 4.5-2 1.6v0.4l-3 3.3-3 1.2h-7l1 5.3 3-0.8 1 5.3v5.6l5 3.7v5.3l-2 4-9-2.8-2-2-4 4.8-9 6.1-3-0.8-11 11-7 5.3-2 4.9-3-4.9-8-2.5-6 2.9-4 5.3-1-6.5-5 4.4-8 0.4-4 10.6-5 5.7v5.7l4-0.4 3 2-3 3.7v5.7h3v6.1l-4-0.9-3 1.7-2 4v10.6h-5l-4 3.6-2 7.8-5 3.6-2 8.1-9 8.2-1-4.5v-5.7l-2-6.1-2-22.3v-6.9l2-6.5 3-3.7 5-9.3h3l8-9 2-2.8 4-4.5 6-8.5 8-4.5 4-11 1-10.1-5 1.2-2 8.9-12 11.8-5-6.9-2-5.7-10 0.8-5 2.9-4 8.9-5 4.1-4 5.3 1 7.3-5-0.8-3 3.6-3-1.2-5-6.1h-4l-5-2-3 2.8-8 2.9-10-2.1-13 0.9-4 1.2-4 6.1-6 4-1 4.5-2 0.8-11 11.8-4 5.7-11 10.1 2 2.5h6v6.5l3 3.6 7-0.8 1-4.4 5-2.1 9 10.2-2 1.6 2 7.3-4 7.3-2 6.5 1 8.2-2 8.5-4 5.3-4 5.7-2 4.4-3 6.1-10 10.2-3 6.5-7 5.3-5 0.4-4-3.7-7 4.5-2 2.8m-1275.7-395.4l6.6 5.8 7.3-2.2 2.2 7.3-4.4 13.2-5.1 2.2-8.8-2.9-4.3 4.4h-3.7l-7.3 7.3-7.3 1.4-7.3-5.1 8-6.6-14.6 0.8-9.5-5.1 4.4-19.8 8.7-8.8 5.2 6.6 5.1-1.4 4.4 10.2 4.3 4.4 13.2 2.2-3.6-5.9 1.4-7.3-5.8-3.6 5.8-11.8 4.4 1.5zm55 14.6l0.4 9.5h-13l-0.8-8-10.8-2.2 4.3-15.4 8.9-9.5 13 2.9 0.9 8.8 0.8 9.5zm1269.7-8.8l4 3 2-5.2 5-2.2 4 5.2h7l7 7.3-5 10.2-7-2.2-4 2.9-11 3-2-3-2 6.6-7-2.2-6-10.2 2-14.6 8-5.9zm-1246.5 26.4h-4.5l-11-7.4 4.5-10.9 8.1-1.5 4.5 6.6v8zm1292.5-16.1l2 4.4 7-0.8 3 7.3-5 2.2h-8l-11-9.5 3-3.6zm-888.7 0.7v7.3l-4.4 0.7 0.8-7.3zm701.7 20.5l-3 5.8-6-3.6 2-5.9zm-1252.4-3l7.3 5.9h12.4l4.4 3.7 7.3 10.9-20.4 15.4-0.8 5.1-4.4 3.7-2.2 10.9-13.8 8.1-1.5-4.4-2.9-7.3-6.6-4.4-4.4 0.7 2.9-8.8 2.2-2.2 1.5-9.5 3.6-8-0.7-7.3-2.9-8.8zm1400.4 10.3l-4 2.2-1-5.9 4-1.4zm-1254.7 34.4l-6.1 2.9v-8.8l-2.9-4.4v-19l2-5.1 9-3.7 7.3 3.7 11 2.2-5.7 10.2-3.3 9.5-7.7 0.8zm-32.6-32.9l4.5 3.6 10.2-2.2-2.9 15.4 6.5 5.1 1.7 5.8-2.1 10.3-6.9 2.9-2.8 6.6-3.7-1.5-2-6.6-6.1-7.3-5.7-2.2-5.1-7.3 4.3-6.6 3.6 6.6 4.5-0.7v-11.7l-2.8-8.1zm1300.3 8l-2 5.8-8-2.1-4-2.2 2-8.8 4-0.7zm-1228.3 11.7l3.6 16.1 4.5-6.6-3.3-10.2 3.7-8.1 11.8-7.3h6.5l1.6 8.8 3.7 2.9 2 13.9 6.1 1.5 8.1-8.8 12.2 4.4 5.3 11.7 3.6 0.7v8.8l5.7-6.6 5.3 2.9 4.9 9.5 11.8 5.9 6.1 9.5-3.7 2.9 1.2 18.3 4.5 1.5v5.1l3.7 1.5 6.5-0.8 4.4 5.9 2.9 11.7 2.8-2.2h6.9l2.9 4.4-6.1 8.9-1.3 4.8-3.6-0.4-1.6 7.8-7.3-3.7-6.5-12.2-5.3-1.6-1.2 8.9 2 7.3 9.7 7.3 1.3 15.9-1.3 7.3-4.4-4.9-9-1.6 8.2 10.2-0.9 4.4-12.2-4.4-6-5.7h-2.9l-7.3-5.3 0.8-5.7-6.1-2.4-4-9.4-3.7 3.7-6.1-0.8-8.1 2.4-7.7-4.5 4-10.9 6.9 2 8.6-0.8 4.4-5.7-3.6-4.5 6.5-7.9 5.3-7.3-4.5-13.2-7.3-5.1-1.7-5.8-4 0.7-0.8-5.1-11-8.1v-6.6h-6.1v4.4l-13-2.9-6.5 3.7-14.6-3.7-2.9 1.5-4.4-5.2h-9l-5.7-8-2.8-8-0.8-11 1.2-11.7 3.7-11.7 7.3-8.1 5.3-2.9 8.9 0.7zm1137.3 1.5l-2 8.7-7-6.5-9-3.7 2-5.9-1-6.5 3-1.5 3-3.7 7 6.6 4 1.5 1 5.8-2 3zm-1233.2-13.9l-3.6 10.9-6.6-8-0.8-5.9 8.1-0.7zm126.3-3.7l7.3 2.2 7-0.7 5.6 2.9 4.5 7.3-4.5 5.1-5.6-0.7-5.3 2.2-4.5-2.2-0.8-6.6-3.7-2.2zm1115.9 17.6l-10 5.1 1-5.1v-2.2l2-3 1-8.7 5 1.4 6 8.8zm-302-7.4l-9 3 2-8.1 4-0.7zm-87 22l4 11.7 6 6.6v5.1l-6-0.7-3-2.2-1 2.9-4-3.7-2 0.8-5-12.5h-8l-1-4.4 1-5.8 5-4.4-1-9.5 4-5.1 9-5.1 8 3.6-2 8.1-3 6.5zm-425.4-26.3l5.7 2.9-5.7 4.4-7.3-3 2.8-3.6zm-478.2 5.8l0.7 8.1 4.4-5.9 9.5 5.1 0.7 5.1 6.6-3.6 0.7-4.4 5.9 5.1 2.2 11 2.9 3.6-2.9-24.8 8-2.2 6.6 6.6 2.2 13.9 3.6 8.7-0.7 9.5 2.9 5.2 16.2 9.5v7.3l-5.3-1.5 0.8 11.7-8.7 2.9-8.8-1.4-7.3-4.4-11 3.7-2.2 2.9-12.4 3.6-11 0.8-2.2-11-8-0.7-7.3-3-3.7-5.1 0.7-5.1 13.9-3.7 10.3 2.2 2.9-4.3-10.2-4.4-5.9 2.2h-13.2l-3.6-16.1-4.4-5.9 2.9-10.2 5.9-7.3 15.3-8.8zm488.4 17.6l-10.2-8.1-0.8-4.4h7.3l5.3 5.9zm812.2-2.2l-5 2.9-6-5.9 1-3.6zm-1444.7 43.1l10.2 1.5 2.2 4.4 10.3 5.1h3.6l0.7-3.7 4.4-3.6h3l1.4-3.7 2.2 3.7h3.7l2.2-4.4 5.1-1.5 7.3-5.8 5.1 2.2 3.7 3.6 2.2-2.9 2.2-10.2 4.3 5.8 2.2 7.3 3.7 4.4 2.2 1.5 2.2-7.3 2.9-3.7 2.9 11h3.7l1.5-5.9 5.8-0.7 6.6 2.9 2.9 3.7 8.8 2.2 4.4 3.6 7.3 2.2 1.5-2.2 6.5 2.2 4.4 5.9-5.8 6.6 5.1 3.6 10.2 0.7 7.3-1.4 5.2-2.9 1.4 3.6 5.9 1.5 3.6 4.4 1.5 5.1 2.2-0.8-3.7-9.5-2.2-13.1 9.5-3 2.2-2.1 3.7 2.9 0.7 5.1 4.4 2.2v2.9h5.1l3.7 2.9 6.6 2.2 4.9-2.2 12.6 0.8 4.5 2.9-0.9-5.8-2.8 1.4-2.4-6.6 7.3-1.4 6.9 5.1 6.5 0.7 5.7-7.3 0.8-4.4-3.7-2.9v-5.9l-7.3-5.1-5.3-5.8 2.5-6.6-2.5-3.7 0.8-8 6.1-7.3 4.1-2.2 7.3 6.6 1.6 5.1-0.8 5.1 4.5 3.7 3.7 7.3-5.3 5.8m1463-28.5l5 4.4-2 3.6-8 2.2-3-1.4-7 3.6 1-7.3 6-5.1zm-1663.2 199.8l-2.2 3.6-2.9 1.3v-8.6l-5.2-5.3-5.1-7.3-2.9-1.6-1.5-6.5-1.4-2.8-1.5-1.7-2.9-2h-3.7l-6.5 2-8.8-8.5-10.3-6.5h-2.9l-10.2-4.5-6.6 1.2-11.7-6.5-5.1-4.4-5.8 5.3-0.8 6.5h-7.3l-2.9 4.4-8.1 3.7-0.7-6.5 2.9-4.5v-5.3l5.9-3.6-1.5-2.9-5.1 2.9-4.4 6.1-1.4 4.4-8.1 7.4 4.4 4.8-4.4 4.5-0.7 3.7-10.3 6.5-2.2 4.4-4.3 1.7-6.6 7.7-7.3 2.4-3.7 2.9-5.1 0.8-2.9 3.6-3.7-1.6 5.9-6.5 3.6-0.8 6.6-5.7 5.1-2.4 6.6-8.6 0.7-7.3-5.1-4.5-2.9 3.7-2.9-4.5-4.4-1.2-7.3 3.7 0.7-9-4.4-5.3-6.6 2.5-7.3-6.1-0.7-2.9 3.6-2.8-8-7.3v-2.9l6.6-9.7 1.4-5.7 2.2-1.6 4.4 3.2 3.7-3.2 1.4-3.7 6.6 0.8 1.5-2.8-0.8-5.7-2.2-3.2 3-4.1-6.6 1.2-2.9 2.4-6.6-0.8-6.6 1.3-5.9-1.3-2.9-5.2 0.8-4.9-4.4-0.8-3.7-2.1 13.2-9.7 6.6-3.6h3.6v7.2l10.3 0.9 1.4-5.9 6.6 0.7v-3.7l-8.8-0.7-2.9-3.7-6.6-2.1-2.2-6.6-13.1-10.3 2.1-8 10.3-0.7 5.8-6.6 1.5-5.9 5.1-8.8 6.6-0.7 5.9-6.6 8.7-0.7 5.9-7.3 9.5 2.2m0 0l2.2 5.1 7.3-1.5 5.1 0.8-0.7 5.1 17.5 0.7 8.1 4.4 10.2 1.5 5.9 2.9 7.3-2.2 5.8 3.7 6.6 3.6m613-14.6l-9 2.2 3.7-7.3 4.5-0.8 2.8-2.9 2 7.3zm200.7 147.5v-1.2l-6-1.6-1 2.4h-2l-8 9.4-3 0.8-5-0.8-6-4.5v-4.9l-2-5.3 1-2 2-0.8-1-3.7-2-2.4v-2l-2-8.2 5-10.1 2-2.1v-3.2l4-1.2v-2.5h5l4-2.8v-2.9l6-2 2-6.9 2-3.6 5-1.3v-3.6l4-3.7 2-4.4-2-1.3 4-6.9 3-1.2-2-6 6-4.4 4-8.7 2-3.7 6-4.4 1-6.6 3-1.4 2-5.1 3-0.8v-4.4l4-2.2 2-2.9 4-0.7 1 2.2 5-2.2v-5.9l4-2.2 7 1.5 6-7.3 1-3.7 5-0.7 2 1.5-4 5.8 2 2.9 6-9.5v8.1l2-0.7 3-8.8 3-1.5 4 3.7 5 2.2 6 4.4m158 10.2l-3 2.2-5-2.9-3-5.9 3-3.6zm-158-10.2l1 2.9-8 5.1 1 1.5 5 0.7m-444.3 6.6l-5.7 2.2-3.3-4.4-4-2.2v-8.1l3.6-2.2 6.5 3 4.9 5.1 0.8 3.6zm428.3-11l4 4.4 4 1.5v3.6l-2 3.7 1 2.9m-46 0l4-0.7 2-3 5 8.1 4 1.4 4-2.2 6 2.2 1-2.2 2-2.9v-2.9l2-7.3 2-4.4 4 0.7 3-2.9m756 5.1l-2 2.9-6-4.3 2-2.2zm-1413.9 13.9l-4.4 5.1-5.7-0.7-9.8-4.4 2.9-10.2 4.4-5.9 9.8 10.3zm15.9-13.9l2.4 2.9 2.9-1.4 4.4 4.4 1.2 7.3-0.4 6.6 2.1 2.9 2-10.2 2.4-4.4 5.7 5.1 2.5 8-3.3 4.4 1.6 5.1 4.5 6.6 2.9-2.9 4.4-8.8 1.2-9.5 3.7-5.1-2.8-4.4v-8h6l9.4 4.3 6.5 7.4 0.8 6.5-3.7 3h-2.8l2 8 4.5 5.9-1.6 6.5-7.7 5.9-4.5 5.3-8.1-1.6-0.8-3.7-5.7 0.7 3.6 4.6-2.8 5.7-5.3 4.9h-2.9l-8.9-7.7-0.8 2.8 3.7 4.9 8.1 0.8 3.6 1.6-5.7 12.2-3.6 2.4h-8.1v4.5l-3.7 0.4 1.6 6.1-8.9 4.9-8.1 11.8-3.7 8.1-2 10.2v8.9l2 3.7h6.5l3.7 13.8v3.6l7.3-2 12.6 3.7 4.4 3.6 2.1 4.1 9.7 3.6 2.1 2.5 4.4 1.2 3.7-0.4 8.1 2.8-0.8 6.5 2 5.3-0.8 6.5 4.5 8.1 4.5 2.9 0.8 2.8 3.6 1.6 2.1-3.6 2.8-1.6 1.6-5.7-2-3.7-0.8-9.7-2.5-7.3 9-4.5 2.8-3.7 3.7-6.5v-7.3l-2.9-9.3-7.3-6.5 6.5-11.8-4.4-11.8 2.4-3.7-1.6-5.6-0.8-7.4 3.2-2.4 9.4 2.8 7.3 0.9 3.6-2.9 8.2 7.3 2.8 6.5 8.1 2.5 2.1 4v12.6l2.4 6.5h2.8l6.5 6.5 8.2-4.8 2-3.7 0.8-6.5 3.7-6.9 3.6 3.6 0.8 3.7 2.9 4.5 4.4 8.1 3.7 8.9v9.4l2.8 6.5 5.7 1.6v3.7l3.3 2.8 2.8-1.6 1.2 3.6 6.1 0.9-4.4 6.5-7.3 3.2-0.9 3.7 11.8-8.2h2.9l1.6 4.5 4.9 1.2 2.4 3.7-1.6 3.6 2.4 6.1-7.3 5.7-3.6-0.8-5.3 1.6-1.7 4.5-5.6 4.1-6.5 0.8-13.9-0.8h-14.2l-3.6 3.6-1.2 4.5h-3.7l-5.3 4.5-4.5 8.1 9-6.5 8.1-4.5 6.5-1.6 5.3 1.6 2 3.7-3.6 3.6-5.7 2.1 1.2 2.4 4.5-1.6-0.8 3.6 2.4 9 6.5 3.6 4.5 1.2 2.8-2 2 1.2 0.8 3.7-8.9 3.6-7.3 3.7-3.7 3.7-3.6 1.6-2-1.6v-4.1l2.8-3.3 4.5-2.8-2.9-2.8-7.3 3.6-2.4-1.6m513.7-244.8l1-4.4 5-2.9h3v-4.4m-858.2 172v-6.1l-4.4-4.5-5.1-2-1.5-4.5-9.5-16.6-5.8-6.1-3-4.9-3.6 1.2-2.2 5.3-4.4 2-0.7-2.8-11-11.8-2.2 1.6-5.1-0.8v-119.1m848.7 2.9v4.4l-6-1.4 3-5.9zm169 8.1l-5 2.2-3-2.2 2-8.1 4-0.7 4 2.9zm-143 7.3l-5-1.5-8-8m0 0l-3 7.3v2.9l-4-2.2h-6l1 5.2-1 2.9-4-2.2-3 2.9-1 2.9-2 3.7 1 3.7-5 8.7 1 3-6 2 1 3.7-1 6.5-4 9.7 2 1.3-1 5.2-3-0.8-4 2.5-2 3.6-2 4.1 2 3.2-1 4.9 1 3.7v6.1l4 4-2 3.3-2 0.4 2 5.3-1 5.2-4 4.9 1 2.9-2 3.6m87-16.6l10-11 6-7.3 3-3.7 2-4.5-2-3.6-4-3.7-3-2.8 4-3.7-1-2-2-2.4-3-8.2 1-7.7 2-0.8-2-5.3-1-2.8-2-8.8 4-7.3v-2.2l-4-5.8-3-1.5-1-5.1 3-7.3m-73 2.9l-2 3.7h-3l3-5.1zm2 7.3l-4 0.8 3-5.2v-2.2l4-0.7 1 4.4zm45 34.3l-3-7.9 2-4.4-2-5.1 1-3.7-2-0.7v-8.1l-3-5.1m-524.6 14.6l-6.5 2.2-3.7-7.3 3.7-8 8.1 0.7v8.8zm284.8 38.7l-1.6-2.1v-2.8h-6.5l2-3.3h4.5l-0.8-2 1.6-2.8-3.7-1.7-1.6 0.9h-6.5l5.3-8.6 2.8-3.8h2.1l2.8 2.2 3.7 5.7-0.4 2.4 4.8 2.1 0.9-2.9-0.9-4.5 5.3 4.5v-4.5l3.7-1.2 4.4 0.4 2.9 1.7 0.8-2.1 2.8 0.4 1.3-2-0.4-2.2 2.8-1.5 2 4.5 3.7 0.8 1.6 1.2-0.8 2.9 6.5 4.5-0.8 2 1.6 3.6-2.8 3.7-5.3 6.1h-2l-3.7 1.2-2.4 3.3-7.8 2.8v2l-3.6 1.7-8.1-2.5-3.7-2.8-8.1-0.8 2-2.1zm-318.1 3.6l7.7 3.7-4.9 4.4-7.3-4.4h-6.1l-7.3 7.3-6.5-11-0.8-6.5 1.6-13.8 2.9-2.8 7.3 9.3 9.7 5.7zm564.9-21.9l-3 0.8-2 0.8-5-1.6-2 6.1h-2v4l-2 1.7v3.6l2 2.1-3 3.6-1 3.7-3 2.4-4 1.2-1 3.3-5 3.6-2 4.9-3 1.6-1 11.8-1 4.9 1 2.8 4 0.8 2 5.3 3 2.1v2.4l-3 2.8-7 0.9 7 2.8-7 4.9-1 2.4-1 8.5-1 4.5-3 8.1-3 0.9h-3l-3 2v5.3h-7l1-2.9-4-6.1 3-2-4-3.7-1-5.2-1-2.9v-4.5l-3-2-1-6.1h2m87-16.6l-10 2-3 0.8-11 4.5-4-5.7h-1l-5-3.3v-2l1-4.5v-5.7l-2-2.4 1-2-1-2.9v-3.6l1-1.7 1-3.6 4-0.8 1-4.9 4-2.8 4-6.1 2-1.3 1-3.6 5-1.6-1-2.9v-4.4l-6-4.5m-1030.9 33.7l-2.9 0.8-7.3-4.5 2.2-2.8zm459.9 9.3l-4.9 2.5 0.4-8.1 7.3-2.1 1.6 3.7zm19.1 0.9l-1.7 5.2h-4l1.2-6.5zm386.8 3.6l-1.2-2v-0.8l1.2 1.6zm186.1 27.2l6-6.1-3-4.8-5-0.8m-1031.6 6.5l-5.9 0.8-4.4-3.7 7.3-2zm989.6-4.5l2 0.8-2 2.4zm24 25.6l1-3.7-5-1.2v-2.4l-1-5.7 3-1.6 2-1.3 9-2.4 5 2.4m2 19.5l1-2.8-1-10.2 2-2 2-4.5m-6 0l4 0.9 2-0.9m-27 6.5l-3 1.7v-4.5zm-116.5 71.6l-1.6 1.6-3.6 2-6.5-1.2-5.3 2-4.5-0.8-3.7 1.6-0.4 2.1-3.2-0.4-3.7 0.4-2 2.4-0.8-1.6 4.5-4.9 1.6-3.7 3.6-1.6-1.6-2-2 0.4-0.8-1.2h-2.9l-1.6-1.7 5.3-2.8 1.2-2-0.8-6.9 6.1-1.3v-2.8l-2.9-7.3 1.3-4.5-5.7 2.9-4.5-2.9 2.8-4.4-2-3.7h-1.6l-1.2-3.7 1.2-2.8h-2.9l-1.6-2.4 1.6-1.3 1.7-4.4-1.7-1.7 0.9-2.8 2.8-1.2v-3.3l1.6-3.6 2.1 0.8 8.1-1.2-0.8 3.6-4.5 3.7 0.8 2 7.3 0.8h2.9l0.8 2.1-2.1 6.1-3.2 3.6 0.8 3.7 2.9 2 2.4 2.8 0.8 4.5 2 4.5 2.9 1.2 3.6 7.3 1.7 5.3 4.8 1.6 1.7 1.2 0.8 2.5-0.8 3.6-3.7 4.1v2.4zm112.5-65.1l-2 2.9 1-2.9-1-2.8 5-1.6-1 3.6zm-153.5 2.5l-2.8 2v-5.3l4-1.2zm-686.8 1.2l-5.1 1.6-1.5-6.1h3l4.4 2.5zm6.6 2.8l-2.9 1.7-2.2-7.3 3.6-0.9 1.5 3.7zm853.7-2.8l-4-2.8-5 2m-944.8-0.4l1.4 4.9-10.2 6.1-2.9-4.5 2.9-3.7 3.6 0.8zm914.8 7.3l-3 0.4-1-3.7 4-3.6h2l-2 1.6zm13 11l-1-3.3 1-4 2-2.5 1-4.9 4-1.6 4 3.7v2.8l2 0.8 4-2v-6.9m16 3.6l-3-1.2-1 1.2-3-2.8m-94 11l-1-0.8 2-3.7h4l3-4.1h2l1 3.7-3 1.2-6 1.6zm-76.7-3.7l-2-0.8-2.4-2.8 0.8-1.3h2v2.9zm181.7 9v-0.9l-2-6.5v-3.6l-2-2.5m-865.1 8.2l-2.2 0.8-2.2-5.7h3.7zm9.5 0.8l-3.6 1.6-1.5-6.1 4.4 0.8zm755.6 16.2v-5.2l-3-0.9 1-2.8v-2l-1-4.5h2l5-4.5 3-0.8 1 1.6v2.9l4 1.6v2.9l-4 1.2-3 6.1-1 4.8m-82.5-16.6l0.8 0.8 1.7 0.8-3.7 2zm174.5 8.9l-5-4.4-3-0.9-1-2m0 0l-2 2-5-1.6-3 0.8-6-0.8-4 3.3m-818.9 5.7l-1.5 3.6-3.6-1.6 0.7-3.7-0.7-6.5zm862.9-4.5l-7-2m-8 4.4l2-1.6 4 0.8 2-3.6m-89 9.3l-1-0.8-1-3.7 3-1.2 3-2.8 2 0.4v3.2l-2 2.1-2 4.4zm52-0.8v-7.7m56 36.5v-2.4l-1-8.1 3 1.6 4-2-2-3.7-3-0.8v-2.4l-3-1.3-1-4.4-1-6.5-2-3.7-3-0.8-3 1.6v-2.4m-856.3 5.3l-2.2 1.2-1.5-1.2 0.7-5.3zm825.3 13l4 0.8 3-2.1 4-2.4v-3.6l2-2.1 3-6.5m-89 1.2l1-0.8 4 1.7v3.6h-4zm210 78.5l-4-8.2-3-2.8-5-0.8v-3.7l-3-0.8 2-4.5 1-7.3 3-4.9 4 4.9 3-1.2-1-5.3 4-2v-1.6l4-2.1 2-2.8h3l3 1.2 3-2 1 2h5l1 2.4 5 1.3 6 4.4 5-4.4h11l2 2.8 4 1.6 1-2.8 4 2 4-1.2v-5.3l-5-2v-4.5l3-1.6-2-3.7 3-4.4-1-6.5 11-1.3 4-1.6 5-0.8 5-2 13-3.7 4-4.4 4 1.6m0 0l3 1.2 3-1.2 2 6.5v4.4l4-0.8 2 2.9 7-0.8v4.4m-426.7-5.7l1.2 11-1.2 4.1-6.9 3.6-5.7 3.7-3.6 0.8-5.7-3.7 4-5.6 1.7-5.3-4.5-2.1 1.6-2.4-0.8-5.7h7.3v-4.4l1.6-2.9 5.7-2v2m-616.5 52.8l-2.1-0.8-8.1-6.5 0.7-3.2-4.3-1.3h-4.4v-3.6l-4.4 0.8-4.4-3.2v-9.4l-5.9-11.8-2.2 1.6-4.3-5.2v-6.5l0.7-5.7m807.2 0.4l4 2.4h3l2 0.8v4.9m-16-0.8v-4.1h7v-3.2m-152 1.6l4.5-1.6h1.2l3.3 5.3 0.4 3.6-4.1 1.6m-5.3-8.9l-2.8 5.3 1.2 3.6 3.7-2.4 1.6 2.9 1.6-0.5m-838.2-5.2l-4.4 0.8-2.1-2.9 5-1.6zm921.9-1.7l-4-0.4m-7 15.1v-3.7l4-0.4 1 0.4 4-4.1v-3.6l-2-3.7m30 11v-1.6l9-2.9 2-0.8 1-2 4-2.4 6-0.9 1 3.7m-49-3.7l3 0.9 1 2.8 4 1.6 3 3.7 1-2.1 3-0.8 1-2.4h3l3 3.2h1l1 2.9 2 0.8m23-6.9l2 0.8 5-0.8m16 0.8l-8 0.8-8-1.6m-132 3.7l1.7-2.9 0.8 1.6zm152 0.8l-1-2.1-3-1.6m279 5.3l3-2.9 4-1.6v2.9l8 6.1 9 15.8 2 6.1 3-1.6v-2.9l5 4.9h5l2-1.2 4-0.8 3 2.8v2.9l5 1.6 1 4.5 5 0.8 2-0.8 4 3.6m-1170.5-35.7l-2.9 1.2-2.9-3.7 1.5-4.9 5.8 0.5zm-183.5-3.3l-4.3 1.6 0.7-4.4zm1014 18.3v-3.7l-2-2 1-2 3-2.5v-2l-2-8.9m638 60.9l-7 1.2 1-3.6v-4.5l1-2.8-2-6.5 2-5.7-1-9 1-5.2-3-6.6 1-9.3v-3.7l6-3.6 2 5.7-1 10.1 2 4.5 2 10.2 2 6.9-4 0.4-3 2.4-2 11 2 4.5zm-363-59.3l-7 2-1 0.8m8-2.8l-7 2-1 0.8m0 0l8-2.8m-8 2.8l8-2.8m-325 0.8v3.7l-1 4 3 2.5 1 4.4-1 2.1 2 5.2-1 2.9m581-23.6l4 3.7h4l3 1.6 7 13.8v2.9l1 2.8 2 7.3 1 2.5h5l4 1.2 4 4.4 3 4.5-1 1.6 2 3.7 9-0.8 3-2.9 6-2.4 2 6.1-3 3.7-1 7.3-5 9.3-6-2-4 4 1 5.3-1 5.7v3.3l-4 0.4m-73-54.9l6 3.3 4-3.7 4-1.6v-4.5l2-3.6 2-4.9 3-2.5v-5.6l-2-2.5 4-3.6 5-1.3 9-1.6m-637.6 19.1h-2.1l0.9-2.8 3.6-6.5 5.2 2 1-2-2-3.3-2 1.6-1-2 5-4.5 5-0.8 3 2.1m-7 21.5l1-6.1-1-2.8 4-0.9 2-2.8v-3.7l1-5.2m885 2.4v2l-2-2zm-744 5.7l-2-0.8-3 1.6-3-0.8-1 2.4h-2m35 40.7v-3.7l3-2h5l1-3.7-1-2 2-5.3-1-2.8-3-1.7-6-2.8h-2l-2-2.9-4 2.1-3-2.1-2 0.9-3-7.4h-5v-4.4l-3-5.3m-11 2.4h-4l-2 4.1-5 0.8-2-1.2-6 0.4h-5l-1-1.2-6-1.7h-8l-2 2.9h-2m342 19.9l3-2h3l5-3.7 11-6.9 6-0.4 1 1.2 6 0.8 2 4.5 5 0.8 2-0.8 6 0.8 2 1.2 4-2.8 1-3.7-3-3.6 1-4.5 6-4.9 5 2.9h2l5 2 4 1.6 1 6.5m-420-8.9v2.4l2 4.5v2.8l-2 0.9-5 6.5-1 3.6m-420.2-8.9l2.4 6.1h6.5l5.7 1.2-2 5.3v7.3l5.7 3.6-1.3 4.9-9.7-5.7-2 3.7-3.7-5.7h-11l-6.5 0.4v-2l2.1-5.7 7.3-17.1 3.6-4.9 3.7-2.4 1.6 3.7zm322.6-10.2l2.8-0.8 2.8 2.4 3 0.5-1 2.4 2 0.8m-14.1-5.3l3.3 1.6 1.2-0.8m-4.5-0.8l4.5 0.8m0 0v-0.8m-8.6 2.9l4.1-2.9m13.1 15.5h-2l-3.8-3.7h-3.6l0.8-2.4-4.9-2.1-0.8-2h-2.4l-0.5-2.4m-23.5 60.9l2-2.4 0.8-7.3 0.8-11-0.8-1.2-2.8-1.7-1.6-2.8 0.8-1.6-2.9-2.1-0.8-2.4h-2l-2.5-1.2h-3.6l-0.4-3.7-3.3-0.8 1.7-2.8 7.3-1.7 2.8 2.9 1.6-1.2 3.7 0.8v-5.3l-0.8-4.5h2l1.6 2.9h6.5v-2.1l5.3-2 2.1-2.4 0.8-5.7 5.2-1.6m60.2 19.1l-6-5.3-3-5.7 2-2 9-4.5h3m-741 13.8l2.2 7.3-10.3-5.3-5.8-3.6-8.1-8.6v-3.6l13.9 4.5 3.7 7.3zm741-13.8l8 2.8v1.7l2 2 2-2 4 2.8 4 0.8 2 3.7m-69-11l2 3.7-1 2m513-3.7l7 3.7 9-2.9 5 1.3 2-0.4 4 2.8 3 0.8v2l3 2.1 12 2.4 3-1.6 10-2v-2.5l5-3.6h3l4 3.2 4-0.8 3 1.2m-589 3.3v-3.3l-1-2m0 0l-2 2v2.5m-361.7 1.2l-1.6 3.2-7.3-3.2 0.8-3.7zm798.7 1.6l2 5.3 3 2 3 2 5 1.7 2 2.8 3 7.3v4.5l-2 2 1 3.7 4 0.8 10 1.6 7 4.5h4l2 7.7 2 3.7h4l6 0.8 7 0.8 7-0.8 5 0.8 1 2 4 0.8 6 2.5h4l2 1.2 10-4.9 7-0.8h8l4-2.4 3-4.1 4-1.6 1-2-2-4.5 1-4.5 11 2 2-1.2 2-3.6 7-0.8 4-5.7 5-0.8 4-2.9 8 0.4v-4l-6-7h-4l-2 3.3-3-1.6-7-0.8 1-4.5 5-11m-503 6.1l-5-2.8-6 0.4-3 1.6-2-2.8m0 0l-2 1.2-1-0.4m-70-0.8l3 0.8m67 0l-4 1.2-3 3.6h-3v2.5m-105.2-6.9v-0.4h0.8v0.4zm48.2-0.4l2 2 4 0.8 4 1.2-3 3.3-1 3.6 1 4.1m-52.3-13h-0.5v-0.8zm477.3 0.8l2-0.8m-40 53.2l-1-2.8 2-2.9 2-0.8-2-6.5-1-5.7-1-1.6 9-2 2 1.2 1-3.7 4-10.9 1-1.2 4 1.2 5 1.6 4-1.6 1-2.9-1-4.4 1-3.7h2l3-2.8v-2.9h3m-346 0l-2 5.7m-476.7 24.8l-3.7-3.7v-10.9l-2.8-2.1-2.9 1.7-1.6-2.5-4.1 6.1-1.6 6.5-2.8 4.9-3.7 1.6h-17.5l-8.9 6.5-2 3.7h-10.6l-2 1.6 1.6 4.5-6.9 2.8-5.7 1.2-6.5 4.5-2.8-1.2v-3.7l2.8-2.4 2-6.5-2-13-11-9-1.6-3.6-19.1-11-4.9 2.9-4.4-1.3-6.5 0.4-10.2-4.8h-3.2l-6.5-2.9m0 0h-147.7m30 117l-2.2-5.2-5.1-4.5-5.8-2h-4.4l-0.8-4.5-6.5-8.1v-4.5l-3-1.2-4.3-9-3-2.8-0.7-6.5-2.2-2.9 1.5-8.1-3-10.9 2.2-6.1 0.8-11 0.7-10.2-0.7-2.8-3.7-9 3.7-1.2 8.7 2.1-0.7-6.5-1.5-2.1m729.5 2.1l2 1.6 6-3.3 3 1.7 2-0.9 4 2.5m-40 7.7h1l3 2.4 2-2.4 1 1.6 4-1.6 6-0.4 1-4.5 4-2.4 1-2m17 1.6l-1 1.2 1 2.8m24-4l1 1.2h2m-27 2.8l4 2.5h4l2-2.5 5-0.4 3-1.6v-2h6m27 2.8l6-2.4 2 2.4 3 0.8 3 2.9v1.2l2 5.3 2 1.6m-42-13.4l4 3.7m22-1.3l-2-0.8m-20 2.1l2-1.3 5 1.3h2l2 1.6 2-1.6h4l3-2.1m8 22v-4.5-3.7-4.4l-5-4.9-1-3.7m-53 0.4v3.3l-2 0.4-3 6.1m36-8.9l-3 1.6-6 11.8-5 1.2m-57-11.8l-5-2-3 2h-2m0 0l-4 2.4-4 5.7v1.7l3-0.9 2 4.5m13-11v-2.4m0 3.7l-1-0.4 1-0.9m0 1.3v-1.3m-351.6 1.3l0.4 0.8h-0.4v0.8h0.4v0.8l-0.4 0.8v-0.8h-0.8 0.8v-0.8-0.8zm580.6 40.2v-2l1-4.5-4-2-3-3.7-3-6.1-3-0.4v-2.4h4v-2.1l2-3.6h6l4-4.5v-7.3l-4-0.8-1 1.6-6-2.4-10 6.1m-50 22.7l-5-6.1-8-3.6-4-4.5 5-1.2 1-5.3v-2.9l3-2.8-1-2.4m0 0h-4l-3 3.2-6 0.4-2 2.5-3 1.2-1 3.2 4 3.7 4-1.6 2 0.8-2 2.8-3-0.8-2 1.6-4 1.2-3 3.3-2-1.6v-4.5l-5-2.8 6-2.9-2-2.4h-6l-2-3.7h-3l-3 2.5-3 3.6-3 1.2v3.7m-102-12.2h-2l-3-2.4m22 4.4l-7-1.2-1-1.6h-5l-1 1.6-3-0.8m0 0l-1 2-5 2.5-2 2-4-3.7-2 4.5h-4m50-4.5l-2-2.8m0 0l-1 0.8-5 0.4-3 1.6-4-0.8m87-1.2l-2 2.9-2-1.7-2 0.8 1 3.7-5 4.5m-77-1.7l-1-4.8 1-2.5m-1 8.2h10v-2.1l2-0.8-1-2.8 4-1.7h1m0 0l5 3.7 5 1.6 3-0.8m-424.4 2h-4.5l-0.8-2.8 6.1-2.8zm586.4-5.6l-6 4.4h-3l-1 4.1-3 3.6 4 8.2v4.4l5 9m-151-31.7l-4-0.8-3 2.4m20 12.2l-2-2.8h-4l-1-1.3 1-2.4-4-2.8-2-2.9-1-1.6m-70 1.6l-2 1.2 2 3.7-2 0.8 2 2.4-2 2.1 2 2 3 1.6-1 2.1m61-15.9l1 4.9v3.2m-29-6.1l-3-1.2-5 3.7 2 2.8-2 1.2v3.7l6 4.5 1 0.8 2 5.7 5 5.3 2 0.8h4v3.6l6 2.1 5 3.6 2 2.9v3.2l-2-3.7-5-1.6-1 1.6-2 2.9 3 2.8v3.7l-3 1.6v1.2l-3 3.7h-1l2-7.3-2-7.3-2 0.8-2-2.1-1-3.2-4-0.4-2-3.3h-4l-6-5.6-1-2.1-6-4.4-2-6.5-4-3.7-3-0.8-4 4.5-3 0.4m32-13l1-0.9m254 10.2l-14-10.2-14 4.5v27.2m471-19.1h3l3 4.9-2 2.5-6 0.8-2 4-1 2.5-8-4.5h-2l-3 1.6-2-1.6-2 2 4 2.5-5 2 1-2-2-2.5v-2.8l6-3.7h2l1-4.4 1-2.1 1-5.3-1-3.6 2-2 5 6.5 5 3.6zm-677 7.4l-3-3.7-5-1.6-4-4.5 1-0.4-2-3.3-1-2.8-3-1.2v2l-2 0.8-2-4.4m78 0.8l3 1.2 3-1.2 2 1.2m-65 17.1l-1-3.7-1-0.8-4-5.3-1-2-2-2.1v-3.2h4l11 0.8 3 2.4m56-3.2v3.2l-5 0.4v7.4m-511.7-11v4.5l-7.8 2.4-4.4 3.7-3.7 0.4-3.6 6.1v2.8l2 6.5-5.7 2.4-7.3 0.4-7.3 4.5 1.2 2.4-0.4 4.1-3.7 4.5-1.6 3.6-2.8 4.5h-2.9l-1.6 3.7 2 2.8 1.7 6.5-2.9 6.9-7.3 2.9-1.6 3.6h-3.7l-2.8 4.5-9 6.5-3.6 8.1 1.6 6.5 3.7 7.3-0.9 0.8 3.7 8.6-0.8 6.5-1.2 4.4h-3.7l-1.6-3.6-2-0.8-1.7-6.5h-1.2l-3.2-4.9 1.6-6.9-5.3-5.7-3.6-1.6-5.7 3.2-5.3-5.3h-4.1l-3.6 1.7-5.3-0.8-2.9 2.8-7.3 5.3-2.8-1.6-3.7-3.7-1.6 2-8.1-1.2-4.5 1.2-5.7 5.3-7.3 4.5-2.8 5.7 2 6.1m620.8-124.4h2l-2 3.7 2 2v3.7h-1m18-5.3l1 3.3h3l4 1.2 2-0.8 4 0.8 2-0.8 2-1.3 6-1.6 8 2.9m-34 10.5l1-3.6 3-2.5-3-2-1-2.8 2-3.3m258 14.6l-4 1.7-2 2-5 2.4-2 3.7-3 0.8-1-3.3h-6l-1-5.6h-3l1-6.5-2 0.8-2-3.7-3-3.2-2 1.6-6-0.8-7 1.6-4-6.1m-287 3.7h-1m-86.1 13.4l-0.8-1.7-1.2-7.3 4.4-2 2.9-2.4 2.8 1.6h9m183-1.6l-1 3.2-2-0.8-2 4.9v2.4l2 3.7m-111-13.4l-4 4.4h-3l-7.2-1.2-3.2-1.6-4.9 2.8-0.8 2.5 0.8 2.8m-46.7-8.1l7.3 1.6 3.6-1.6 7.3 2 2.1-0.4m222.7 0l4-1.6 5 2 7 0.8 5 2.9h7l2 3.6 4 2.5m-144-11.8l2 2.8 3 1.7m-5-4.5l-3 2-2 5.3m123 7.3l2-2.8-2-6.1-8-4.1m-205.2 4.9h-8.2l-1.2-1.2-5.3-1.7-2.8-2m408.7 2.9l-2-2.5-4 1.6-1 2.9-2 0.8-6-2-4 0.4-1 3.6m-271-4.8l3-2.5 5 4.5-1 2.8m581-3.6l-2-2.1m0 0l-2 4.5h-2l-2 2.9h-5l1 4.4-5-0.8-1-2-6 6.5-5 2.8-3 2.9m-236-15.5l-4-1.2-1-2.4-4-0.4-15-0.8v0.8l-5-0.8m-305 0.8l-1-0.8m14 2.8l1-2.8m-10 3.6l-4-2.8m4 2l-4-2m602 0.4l1 3.6m-646 0.8l-2 6.1-2-1.6-1-3.6v-2.1l3-3.2 1 0.8zm248 6.1l6 0.4-1-4 2-2.5h2l3-3.6 6 2.4 3 0.4 1 6.1m-313.2-8.9v0.8 0.8h0.8l0.8-0.8m0 0v-0.8h-0.8-0.8m90.2 0.8v0.8m9-0.8l2 2v3.3m-5 0l-1-2.5 1-2.8h3m-90.3 0.8l-6.1 0.8-1.2-1.6m94.6 5.3l-3-3.3-3-1.2m-81.3 0l0.8 3.7-5.3 3.6-0.8 0.8-6.5 2.1-4.5 6.5-2 4.4 1.2 3.7 1.7 1.6-4.5 2.9-2 4.8-1.7-0.4-2 2.1-2.4 3.6h-12.2l-1.7 1.6-2.8 0.5-0.8 1.6m327.8-35l-2 0.4-5-5.6-3-2.1-6 1.2-3 2.9m-163-4.1h2m-8 2.1l6-2.1m0 0l-2 0.4m8 6.9l-1-5.2-3-2.1m578 0.4l-1-0.4-4 5.7v5.3l-7 4.9-4 2.4v4.1l4 3.6m-570-25.6l-4 1.7m268 12.5l4 0.5 2-1.3 3-0.8-1-2.8-3-2.5h-6l-3-2.8 4-4.5m14 19.9l2-4.4 4-2.1 4-1.6 1 2.4 3-0.8 4-4.4h5l2-2.9 5-2.8 5-1.6v-1.7m-472.3 0.8l0.9 2.5 5.2-0.8h2.9l2 2.8-2.8 2.9-0.8 8.1-0.4 2-2.5 1.6 2.5 2.9-1.7 2.4v4.9l-1.6 2.8 0.8 1.7m-7.3-32.1l2.8-1.7m189.3 0l5 1.7m-5-1.7l5 1.7m0 0h-3l-2-1.7m5 1.7h-3l-2-1.7m-4 2.9l1-1.2 3-1.7m143 33.8l-1-8.2 1-2.8-2-1.6-2-5.7-3-2.1 3-3.6 2 1.2 6-2v-1.6l-3-2.1-1-4.4-4-0.9-2 2.9h-2m-169-2l-2 1.6m82 41.4v-3.6l2-2.1-1-2.4-3 3.2-4-1.6-4 2.9-6 1.6-4-2.9-4-2.4-4 0.8v2.9l-5 1.6-2-1.6-1-2.1-3-1.6-5-0.8-2-2v-4.5l-4-1.2 2-6.9-1-2.9-3 0.8v-2.8l3-3.7 6-0.8 5 0.8 2-1.6 1-4.5 11 0.9 5-4.5 6-2 8 0.8 3 1.2h3l2 3.6 3-0.4 3 2.1 4 0.8 6-1.6 4 1.6 7-2.9v-1.6m-71-2.8v5.7l-3 0.8-2 2.8-3 0.8-2 2.9-1-4.5m-178.8 23.6l-1.2 1.6h-5.3l-0.8-2.4v-6.5l-3.7-2.1 0.9-4.5 1.6-2.4 2-9.3-1.6-5.7 0.8-0.8m294.1 0l7 4.8h2l3-4m-19 3.6l2-0.8 3 1.2 4-0.4-3-2.4 1-2m-138 0.8v2l2 4.5 1 0.8m-6 7.7v-2.8l-2-0.8-1-2.9 1-8.5m155 0l7 10.9-1 0.5-4 10.5v1.2m-122-15.4l3-4.1-1-3.2m0 0l-2 3.2-4 0.4-4-2-5 0.8-3 0.8m109 1.3l-3-3.7-3 1.6-5-0.8m100 0.8l2 1.2h6l1 0.9 3 7.3 7 6.1 11 6.5 5 2-1 3.7m-243-23.2l3-0.8 2-1.6h3l3-1.3m117 0l3 2.9v2.8l2 2.1v2.4l2 3.6 1 2.9m-16-15.4l8-1.3m-188 8.6l-1 6.5-5 1.6-2-2 1-7.4-1-3.2 3-1.2 3-2.5 1 0.9 1 4.4zm651 36.5l5-4.8h4l8-1.7 3 0.8 7-7.3 8-3.6 3-4.5 3-2 4-9.8-2-7.3 5-4.5 4 3.7 2 3.2 1 4.9-2 3.7-1 4.5h-2l-1 9.3-1 3.2v2.9l1 2-3 3.7-3 1.6-1-2.4-2 1.6h-3l-3 2.8h-4l-6 2.9-3 4.4-3-2v-2.8l2-1.7-4-1.6-4 2.5-4 0.8-6 0.4-5 1.6-1-2zm-464-33.7l-3-2.8-2 0.8-2-3.7v-4.4m-93 2.8l-5-2-4 0.8-2 3.6-4 1.3-4-1.3v2.1l2 2.4 1 7.3 5 2.9v3.6l-2-1.6h-2v3.7l-3-0.9 3 5.3h-5l-1-1.6-2 0.8-1-3.6-1-2.1v-2.8l3-1.6 5 2.8-1-2-4-0.8h-4l-2-2.9-1-1.6-4-4.5m558-2.8l-2 1.6-5 1.2-7 3.7-2-2.9 5-6.5-2-1.6-4-1.2-5 4.9-4 2.4-3 4.5-6 0.4-1 5.3 2 1.6h5v1.2 4.5l3 1.6 7-5.3 4 2.9h5l-1 3.6-2-0.8-4 2.4-3 3.7-2 0.8-3 2.8-3 4.9 6 3.3 4 8.5-1 2.4 4 3.7-3 1.2 3 2.9 2 2.4-5 2 5 6.5v2.5l-7 8.5-1 3.3-2 2.8-3 0.8 1 2-4 8.2-10 8.1-3 3.6-5 1.3-6-0.8-2 1.6m-247-90.6v-2.5l2-4-1-1.6v-4.5l-3-1.2 2-3.3 2 0.8 4-2 4-6.1 3-1.2v2.8l4 1.6m-267-3.6l-2 4.9-2 2.8h-2m287 1.6l-3 0.8h-6l-2-2.4-12 0.8v-2.8l3-1.6 4 1.6 2-2.1m297 16.7h-6l-4-2 3-6.9v-2.9l-5-2v-1.6m-641.6 0.8l0.8 0.8-0.8 0.8-1.2-1.6h-0.9v-0.8h2.1zm-5.7 1.6h0.8 0.4 0.8l-0.8 0.4v0.8h-0.4v1.6l-0.8 0.9-0.8-0.9h-0.8l-0.8-0.8v-0.8h-0.5-0.8v-0.8l1.3-1.2h1.6l0.8-0.8zm229.3 6.5l-3-1.6-4-4.5m22 8.1l-2 0.9-4-9-7 5.3m-2 0.8l-2-5.3-5-0.8m0 17.1l-1-3.7-2-1.6v-5.7l-1-3.7 4-2.4m-405.1 2.4h-0.9v-0.8-0.8l0.9 0.8zm566.1 14.7l-1-9-2-1.2-2 1.2-2-2v-4.5m-386.1 4.5v-0.8h-0.4l0.4-0.8 0.9-0.8h0.8v0.8zm241.1-0.8l-2 0.8m-390.2 1.2h-0.8l-1.6-0.4v-0.8h0.8 1.6v0.8zm-4.5 0v0.8l-1.6-0.8-0.4-0.4zm157.3-0.4h-0.8l-0.9 0.4v-0.4h0.9zm-161.7 0.4v0.8h-0.9v-0.8zm838.1 0l1 3.3 4 5.7 1 3.6v8.1l-1 2.9-4 1.6-3-0.8-4 1.2-5 0.8 1-9.3v-4.5l2-1.6-2-4.1 1-1.6m9-5.3l-2 2.5h-4l-3 2.8m-826.3-4.5v0.9h-0.4-0.8l-0.8-0.9v-0.8l0.8 0.8h0.8zm411.3 0v3.7l3 2.8 3 0.9 2 2.4 4 2 4 1.6 9-2.4h2v-2.8m74 0.8l1 1.2 8-4.1 3 0.4 1-2.8 2-2.8 4 0.8 1 2.8m-299-2.8l-3 6.5 2 2-2 2.4-3-1.6-11-6.5 2-2h2l3 1.2 7-1.2zm205 6.5l4-1.7 4-3.6h4l1-1.2h5l1 2 10 2.8 5 6.1h5l1 6.5m-464.9-14.6h0.8 0.4 0.8 0.9l-0.9 0.8h-1.2-1.6l-0.8-0.8 0.8-0.8v0.8zm518.9 0v5.3l2 2.8 7-5.2h7l2 1.6m-72 10.1l6 2.9 3-1.2v-3.3l4-1.2 4-2.4 1-4.1 4-1.6 1-1.7 4 0.9m-129 2.4l3-2.4 10 1.6m116-1.6l7 1.6m-316 1.2l6-2 2 0.8 3 8.5 2 1.6v2.9l-3 4.4-3 2.1 1 2.4 6 4.5h1m-89.8-19.9l-1.2 1.6-2.5-1.6-2.8-5.3-4.5-2m439.8 0.8l-2 0.8m-139 45.1l-5-5.7 2-5.3-3-4.5-6-2.8-2-4.5-2-2v-2.8l3-5.3-2-4.5-2-1.2-3-7.3m-48 9.3l3-1.2 2-6.1 4 1.6 4-1.6 3 0.8h6l5-2h8m-19 24l12-6.5 1-2.5 1-11.4 2-0.8 3-2.8m-237.8 13h2.1l4.5-3.7 4.4-0.8 2.1-2 5.2-2.9h6.5l2.1-1.6 10.1-0.8 3.8 1.6 5-2.8 3 1.2 2-1.2 7 0.4m356 0l-4-0.4m0 0l-3 1.2h-2-6l-7 5.3 2 4.5v2.8l-3 2v3.7l-3 0.8-3-0.8 2 5.3-4 1.2-1 3.6v3.7l-2 1.6-4-0.8-4 3.7-3-0.8-3 2.4v6.5l-7 2h-4l-10 0.8-8-2.8m-459-45.5h0.8-1.7zm180 0l-2 7.3v4.5 3.6l-4 3.7 1 6.1h2l1 3.6 4 2.9 3 11.8m364-33.8l-2 0.9-7-3.3-1-4.9-3-2.4m-430.8 5.3v0.8zm105.8 2.8l-1-0.8v-0.4l2 0.4zm-147.3 51.2l1.3-2 7.3-2.5 7.3-6.5 2.8-4.4-1.2-2.9 0.8-4.8 2.1-5.3v-2.1l4.4-4.4 4.9-2.5 4.5-2.8 2.4-4.5 2-6.5 2.9-0.8 0.8 2.4 2.8 2.1 5.3-0.8 8.1 1.6m203.8 2.8l-1-7.3m134 37.4l5-5.7v-3.6l-6-0.9v-4.4l-1-5.7v-6.1l2-3.7 3-6.5m-202 2.9v-2.1h3v1.3h8l1 1.6-6 0.8-2-1.6zm307 31.7l-8-4.5-6-8.1 5-2.1v-3.2l-4-2.9v-3.6l2-2-4-1.7-3-5.7m-51 72.4l3-0.8v-2.1l6 0.8 6-3.2-2-5.7-3-1.6 1-3.7-4-1.2v-2.4l5-5.7 2 2 6-1.2 2-5.3 4-1.2 2-5.3 5-5.7 1-3.6-1-2.5 5-2-3-2.5-1-2-3-2v-6.9l2-3.7 6 1.6 5-1.6 3 0.8 1-2.8 3-2.9m-237 4.9l-3 0.8-3-2.8 4-1.6 5-0.4-2 3.6zm-224.3 44.7v-6.5l8.1-5.7 8.6-1.6 3.2-3.7 2.9-0.8 2.8-3.6v-2.9l4.5-1.6 0.8-1.2h8.5l1.7-2.5-2.5-1.2-1.2-3.6v-5.3l-2.9-6.5m203.8 2.8h2l1 2.9-5 6.1m-3 1.2l5-10.2m521 3.7l3-2 3 3.6-8 3.7-3 3.6v-3.6l1-5.3zm-21 9.7v-3.6l5-5.3 3 2 3 0.8 2 3.7-2 2.4-2 7.4-2 2-2-3.7-3-2 3-3.3v-2zm-483 2.9l-2-8.1m-17 4.4l7 2.1 10-6.5m-17 0.8v3.6m-3-2.4l3-1.2m-129 0.8l4 2 6-0.8 10 3.7 2 5.2 2 1.3 8 1.6 4 1.6 5 3.7 2-0.8 3-5.3-1-4.9 3-3.7 6-2.4 5 0.8 4 1.6v2.1l4 1.6h6l1 2m-84 9l1-0.8 2-3.7v-2.8l4-4.5 3-2.5v-4m123 10.1l3-9.7m-278.8 1.6h0.8 0.8l0.8 0.8h-0.8l-0.8 0.8-0.8-0.8-0.4-0.8zm-533.7 1.6l13.2-0.8-0.7 1.2 8 3.3 12.4 4.1h8.1 6.6v-2.9h8.7 0.8l1.4 2.5h0.8l3.6 3.6 2.2 1.2 1.5 2.9v1.6l0.7 1.6 2.9 2.1 4.4 2 1.5-2 1.5-2.9 1.4-0.8 1.3 0.8h3.6l3.7 4.5 0.8 0.4 1.6 2.4v1.2l1.2 1.7 1.7 2.8h1.6v3.7l1.2 1.6 0.8 2 3.7 0.8 1.6 1.7h2l1.7 0.4 1.2-0.4m708.8-41.1v2.1m-682.4 104l-5.3-5.3-3.6-2-0.4-0.9-1.7-0.8h-2l-0.8-1.2-2.9 2.9h-2.4l-2 1.2h-1.7-2l-1.6-1.2h-3.7l-1.2-1.7-2.4-0.8-1.2-1.2-5.3-0.8-0.8-0.8-5.7-2.1-3.7-2.4-1.6-2-1.2 0.8-3.1-0.8-3.6-1.6-1.5-2.1-2.9-2-2.2-0.8-2.2-0.8-2.2-4.5-0.7-2h1.4v-1.7h-0.7l1.5-2v-1.6l-1.5-1.2-0.7-2.5v-2l-0.8-1.6-2.9-2.9-2.9-2.8-0.7-2.5-3-1.2-1.4-1.6-0.8-0.8-2.2-2.9-2.2-1.2h-1.4l-2.2-2.4v-1.2l1.5-2.5-1.5-2h-2.2v-1.6l-2.2-0.8-1.5-1.3v-1.6l-2.9-2-2.2-2.5-0.7-0.4-1.5-2.4-1.4-0.8v-2l-2.2-2.1-0.8-2.4v-1.2l-1.4-3.3v-2.8l-3-0.8-0.7-1.3h-2.9l-1.5-1.6h-1.4v3.7l0.7 1.6v2.8 1.7l1.5 2.8h0.7l2.2 2 1.4 2.5 2.2 1.2v2.4h1.5l0.7 2.9v0.8l0.8 1.2 1.4 0.8 0.8 1.7 1.4 2 2.2 0.8 0.7 2v2.9l3.7 6.9v2l1.5 1.6 1.4-0.8 2.2 1.2v2.5l1.5 1.2v0.8l-2.2 2.4-0.7-0.8-0.8-1.6-0.7-1.2-1.5-1.6-2.2-1.7-2.9-1.2-1.4-2.4-1.5-0.4-0.7-0.8 0.7-2.9v-2.4l-1.5-2.9-1.4-0.8-3.7-2h-1.5l-1.4-1.6-3.7-1.2v-0.9l-2.2-2.4 3.7-0.4 0.7-1.6v-2.1l-4.4-6.1h-1.4l-2.2-2-1.5-3.6-0.7-1.7v-1.2l-1.5-0.8v-1.6l-2.2-2.1 0.8-1.6-1.5-1.2v-1.6l-1.5-2.1m814.5 6.5l1-5.2m0 0l-3 1.6v2.8l2 0.8m-535.1-4.4l0.8-0.8zm594.1 19.9l-9-0.8-15-11.8-9-5.3-6-1.2m0 0l-1 0.8-11 2.8 6 6.5-3 2.9-4 0.8-4 4.5-6-1.7m-51-13.8l11 1.7 3 2h3l3 1.6 2-0.8 5-2.8h7l2 2 9-0.8 2-0.8m-48 55.6v-43l-2-5.3 2-4.1-1-3.6 2-1.7m49 0.8l-2 2.1m0-0.8l2-1.3m5 0l-2 12.2m-5-10.9v0.8m0 0l4 10.1m252-3.6l-4-1.2-1 0.8m-382 0l-1 0.4 2 4.4v7.4l1 2.4-1 2.8v4.9l-2 2.5 3 4.8 1 3.3 8 2.8 2 4.5m369-40.2l-4 2.8-2 5.7 7 2.8 7 5.3h8l3 2.9 6 2.8 5 0.8 6-0.8 2-1.2-1-2.4 1-4.1m0 0h-10l-3-3.3h-4l-5-3.6-1-2-2 0.8-8-6.1m-182 0.8l-3-0.8-5 6.9m11-6.1h-3m0 0v3.6l2 5.3m71 20.3l-1 0.9-11-2.9h-7l-4-1.6-2-6.5-3-2-4 1.2-6 2.8-4-1.2-7-3.7v-1.6l-6-2.8-2-5.7-5-6.1h-8m66 0.8l4 6.5 4 2.4 2 2.9v2.8l3 1.7-1 3.6h-2l-5 2-1 6.5m-143-26.4l-4 10.6-4-4.5-1-2.4h-3l5 6.9 2 7.3 8 14.6v3.7l2 4.1 2 1.6 4 2.8m-11-43.9l1-0.8m0 0h-1m334 8.2l-6-2.1-1-5.3-3 2.5-5-1.6-4 3.6-2 0.8-6 4.5-4 0.4m-260 65.8l-3-6.5-4-2-2-4.5v-2l-4-5.3-4-2.8-3-3.7-1-4.5v-3.6l-3-7.3-4-2.9-3-2.8 1-2.5-3-4.4-3-4.1-4-7.3-4-3.3 1-6.5m-259.5 2.9v0.8l-0.4-0.8v-0.4h0.4l0.8-0.8 0.8-0.8v0.8 0.8l-0.8 0.4zm-526.4 1.6l-1.4-1.6 0.7-1.2 1.5 0.8zm857.9 0.8h-4v-2.8h-6m-343.4 2.8v0.8l-0.5-1.6v-0.8h0.5l0.8 0.8v0.8zm19.9 2.1l-0.9 0.8h-0.8 0.8v-0.8l0.9-0.9v-0.4l0.8-0.8v-0.8h0.8v0.8 1.2l-0.8 0.9zm-11-1.3l-0.8 0.4-0.8 1.7v0.8h-1.3l-0.8-1.6v-0.9h0.8l1.3-0.4 0.8-0.8h0.8zm344.5-0.8l1 2.9 5 5.7 3 2.4v4.5l4 7.3m253-20.7l-3-2.1-1 2.1m-46 5.2l3-4.4 3-1.7 2 1.7 7 2m31-2.8v1.6l-4 3.6-3 0.9-5 3.6v3.7l-3 3.6 1 2.1-4 6.5-2-0.9-2 6.1v4.5l-4 1.2m-585.8-34.9h-0.4v-0.8-0.8l0.4 0.8zm631.8 37.8h-4l-2-0.4v-2.5l-5-0.8 2-4.1-3-1.6v-3.6l-3-2.1-2 0.4-2-2.8 1-4.5 3-2 2-3.7v-2.8l-1-5.3-1 0.8-1-4.4m-606 2.4l-1.7 0.4-0.8-0.4v-0.8l0.8-0.8h0.8l0.9 0.8zm556 2.8l-1-4.4-2 1.6m-566.9 0.4v0.8l-0.8-0.8 0.8-0.4zm584.9 0l2 1.6 1 3.7m-538.3-4.5h-24m-20.7 40.2v-6.5l2.9-2 3.6-9.7 4.5-4.5 0.8-4.1 1.6-4.4 4.9-3.7 2.4-5.3m24 2.5v-2.5m538.3 4.5l-2 0.8h-6l-2-0.8-3 0.8-5-1.6v-2.1m-500 13.9l-20.3-13m-44.7 37.7v-3.6h21.1v-6.5-2.9l6.1-2.4v-15h17.5v-7.3m-370.1 2h0.8 0.8 0.8l0.4 0.8 0.8 0.8 0.8 0.4h0.9v0.8 0.8h-0.9v0.9 0.8 0.4h-0.8v-0.4h-0.8 0.8v-0.8-1.7h0.8v-0.8-0.4h-0.8l-1.2-0.8v-0.8h-0.8-0.8zm-3.7 2h-0.8l-0.4-0.4h0.4 0.8v-0.8h0.8l0.8 0.8 0.9-0.8h0.4 0.8v0.8h-1.2-0.9l-0.8 0.4zm896.1 28.9l-1-3.3-1-7.3v-4.9l-4-2.4 3-4.9-3-2.4 2-3.7 5 3.3h2v3.6m-209-4.4v0.8l-1 0.4v-2.1zm6 10.9l2 2.1 3-1.3 6 0.4 4-1.2 8-10.1 1 2 1 3.7m-30 1.6v-4.5l2-2.8 3 0.4v5.3l-3 2m-791.8-7.7l-0.8 2.8-1.2 2.9-0.9 4.4-0.8 5.7 0.8 2.4-0.8 1.3 0.8 6.1 0.9 1.2 2 3.6 2.4 3.7 1.2 1.6 0.9 2.9 0.8 0.8 2 2.8h2.8l2.5 0.8 2 2.1 2.9-0.8 1.6-0.5h3.6l2.9-1.6h2.4l0.4 1.6h1.7l1.6-1.6-0.8-1.6 2-1.2 1.6-0.8v-2.1l1.2-1.6v-0.8-3.7l0.9-1.2 0.8-0.8 2-0.8 3.7-0.8 2.4-0.8 3.6-0.4 3.7 1.2 1.2-1.2 0.8 1.2 0.9 1.6-0.9 2-2 1.7-0.8 1.2v1.6l-1.6 2h1.6l-2 6.9h-2.5m61.4-41l0.8 0.8 0.8 0.4 0.8-0.4v0.4l0.8 0.8h0.4v0.9l-0.4 1.6v0.4l-0.8-0.4 0.8-0.8v-0.8-0.9h-0.8v-0.8l-0.8-0.4h-0.8-0.8zm773.9 10.2l-4-0.8-2-4.5-2-0.4v-2.5l-2-1.2-9 0.4-4-0.4-3 1.2-5-0.8-3 1.7-1-0.9m150-1.2l3 1.2h9l1 0.9v3.6l-4 1.6-1 2.9 2 4.4 1-3.2 2-1.2 2 9.3m147-8.5l5-8.9 3-1.7 2 2.5-3 9.3-2 5.3-4-0.8-1-3.7zm-1058.6-9.8h0.4 0.8v0.9l0.8 0.8v0.8l0.8 1.2v0.8h-0.8l-0.8 0.8h-0.8v-0.8h-0.4l-0.9-0.8v-0.8h0.9l-0.9 0.8h0.9v-0.8-0.4-0.8l0.4-0.8zm4 0.9h-0.4 0.4 0.8zm436 33.7l-4.9 1.2v-4.9l-7.3-2.4-3.7-2.9v-2l-6.9-4.5-16.6-12.6-9-5.6m-39.4 58.5l2.5-0.9 0.4-3.6 1.6-0.8 3.6 1.6 7.4-0.8h20.3l0.8-4.5-1.2-0.4-5.3-49.1h9.3m327 0l1 2.8 4 3.7 7 1.6 6 8.1-2 4.9-3 1.6-2 4.5-2-1.6-2 5.2v3.7l-3 1.2-3 1.6-1 3.7h-4l-2 1.2-1 3.7h-5l-5 2.4m11-34.5v-2.1l2-7.3 2-4.4h2m-28 2l-2-0.4m-674 3.6v-0.8-0.8h-0.8v-0.8-0.8h-0.8 0.8v0.8l0.8 0.8 0.4 0.8v0.8h0.8-0.8zm676-3.2l3 2.4m-690.8 0v0.8 0.4-0.4h0.8v1.3 0.8h-1.6 0.8 0.8-0.8l-0.8-0.8v-0.9-0.4zm690.8 0v0.8l4 7.3 15 1.3m-693.1-8.2v-0.4h0.8v0.4l-0.8 0.9zm874.1 14.3l-3 0.4-4-2.1-4 2.1-2 2.4 1 2.9-3 3.6-4 1.6-4 2.9-4 4.9-4 3.6-5 2.4-1 3.7-3 1.2h-2l-2 3.3-4 0.4-1 3.6v4.5l2 5.3-2 4.5-1 2v9.3h-2l-3 3.7 1 1.6-5 2.9-1 2.8-2 1.6-3-1.6-3-2.8-1-6.5-3-7.4-5-8.1-1-4.9-2-5.2-4-7.4-1-5.6-2-9-1-7.3 2-4.5-3-2-1-5.3-2 5.3-5 2-3-0.8-6-5.7v-2l5-1.6-6-1.6-3-2.1-2-3.6m-770.3 0.8h0.8l0.9 0.8h-0.9zm3.7 0h0.8l0.8 1.2v0.8 0.8h0.8v0.8h0.8v0.8h-0.8v-0.8h-0.8v-0.8-0.8-0.8h-0.8v-0.4zm482.6 3.6l-4 2.1-4-2.9-8-2m0 0l-24 15-9 8.2-8.6 1.6m57.6-22l5-2.4 13 6.1 18 10.2 12 6.5m449-11.8l-4-0.4-4-2.5v-4.9h-4l-3-2.4m0 0l-2 0.8-1 2.1-4 1.6-3-1.6-1 2.4-4-2.4-2 2.4m-946 14.6l-5.7-0.8-4.4 0.8-2.9-1.6 2-2-0.8-1.7h-4.4l-2.1-1.2-1.6-3.6-2 0.4-4.5-1.2-2.8-1.7-6.5-0.8-0.9-2.8h-3.6l-3.7 2.8h-2.8l-2.9 2.5v-3.7l1.3-1.6 5.2-2.1 4.9-0.8h9l2.8 1.6 4.5 2.9h2l7.3 3.7 0.8 1.2 8.2 2.4 1.6 2h2.8l2.1 2.5 0.8 1.2zm474 34.1l-1-4 4-6.9 7-6.5v-11l1-6.5 1-2-4-6.9-1-8.6m-475.7 2.1h-0.8l-0.8-0.8h0.8l1.2 0.8zm887.7 9.7l-2-8.9-2-1.6-3 1.6-4 4.5-2-0.9-3 1.7m-872.5-3.3v-0.4h0.8l0.4-0.8 0.8-0.8v-0.8l-0.8 0.8v-0.8h0.8v-0.8 1.6l-0.8 0.8v0.8h-0.4zm674.5 18.3l16-5.7 3-11.8-2-3.6m314 0.8v1.6l-2-2.4m2 0.8l-2-0.8m0 0l-1 2.4m-994.4 0l-0.8-0.8h-0.8-0.8 0.8 1.6zm933.4-0.8l3 2.8 2 0.9-1 2.8m-4-6.5l-3 1.2 1 1.6v3.7l-2 0.8-1-2.4m-1390.7-3.7l-0.7 1.6-1.5-0.8v-0.8l2.2-0.4zm1456.7-0.4v0.4m0-0.4v0.4m0 0l-10 3.7h-4l-4 3.2 2 2.9-3 1.2-1-3.7v-3.6l-3 0.8-3-2.9-3 2.1m-380-2.9l1 5.3 2 11 4 4.9 2 1.6m-9-22.8h-63m0 0v11.8h-6v2.9m366-14.7v2.9l-2 3.2m-876.3-4.4l-0.4-0.9 0.4-0.8v0.8zm1.6 0h-0.8v-0.9h0.8zm-460.7 0.8l0.8 2h-1.5l-0.7-2zm1377.4 7.3l2-2.5 1-2.8 3-1.6m37 0l-4 3.2-3 0.4-1 3.7-3 1.6-2 5.7 1 2.4 4 3.7-1 0.8 5 4.9 2 2.4 6 6.5 2 8.1v2.1l1 2.8-1 1.6v4.5l-1 2-9 5.3h-4l1 1.2-1 3.7-5 2.4-2 2.1-2 0.8v-5.3l1-2.8-3-2.1m-951.7-58.1v-0.4l0.8-0.8 0.9-0.8 0.4 0.8h0.8l0.8-0.8v-0.8 0.8 0.8l-0.8 0.8h-0.8l-0.4 0.4-0.9-0.4zm942.7-2l2 2 2 1.7 2-2.1 3 2.1 2 2-2 3.6-2-0.4-2 2.1 5 2.8 4 3.7 1 2.8 5 3.7 4 6.1v0.8l2 2.8-1 2.9m-47 23.9l-2-2 2-1.6v-3.7l-1-4v-3.7l-1-3.3-3-6.5v-2.8l-4-9.3-1 2-6 2.8-1 2.9-3-0.4-4-1.7 2-8.1-4-10.1-2-4.5h-3v-2l-3-1.7-1-1.2m-1325.1 2.1h-1.5l-0.7-1.7 0.7-0.4 1.5 1.2zm745 25.5v-2.8l2.4-6.5v-4.5l-1.6-2.8 0.8-6.9-1.6-2-2.9-0.9m627 3.7l-2-1.2m0 0l-5 2.8-6 1.2-1 0.9v5.2h-2l2 4.9 4 4.5 1 2.8-1 5.3-2 0.8 1 2.9 4 5.6v3.7l3 6.9-3 4.1-2 1.6v2m-1355.7-49.5l-2.2 2-1.5-1.2v-0.8l-0.7-2.1 1.4-1.6v-1.6l3 1.6 1.4 2h0.8l-0.8 1.7zm1418.7 2.8l-4 3.7-6-2.1v-4.4l3-3.7 8-0.8 2 2.8-2 1.7zm-28 24.8l2-1.2-1-2.9 1-3.2-5-4.1v-4.5l-4-6-4-0.5-3 3.7-4-2.4-4 3.6h-1l1-2.8v-2.1l1-3.6-2-3.3h-3v-2.8m-919.5 11.8l-1.2-1.6-3.7 0.8-3.6-0.8-3.3 0.8-2-0.8 1.6-2.1 2 0.8 5.3 0.8 0.4-2.4-0.4-1.2v-2.4l-3.2-0.9 3.2-2 4.9 1.6m0 0l4.5-1.6 3.6 2h2l0.9 1.7h2.8l4.5 3.6-0.8 2.1-7.4-0.5-3.6 1.3h-2.9l-1.2 2.8-2.4-2m0 0l0.8-1.6-0.8-7.8m511.5 1.3v21.1h-4l-1 3.2-3 2.9v2.8l-3 1.6 2 2.1-2 2 6 8.9-1 2.9m-556.7-46.7h1.6-0.8zm1324.7 0h-1zm-867.6 0.8v15.8l-1.2 3.3-2.5 2-11.8 0.8-2 1.2-3.6 0.8m282.7-9.3l-6-13.4m0 0l-18 3.7-13 14.6v-5.7l-10-3.7h-7l1 3.7-2 2m428 14.6l2-1.2 2 4.5 2 0.4-1 2.4-3-2.4-1-2-4-2.9-2 0.8-2-0.8-2 2.1-4-2.1v-1.6l2-2-5-0.8-1-5.7 2-2.5v-2-2.4-4.1l1-3.7 4-1.6 4 2.1 2 5.2 1 1.7-1 2.8-5 7.3 2 5.7 2 1.6 1-2.4 3 0.8zm-1066.1-23.1l-1.2-0.8-1.7 0.8-0.8 0.8-0.8-0.8h-1.2l-2.4-1.6-1.3-0.8 0.9-0.5 2-0.8 5.3 0.8 0.4 0.5 2.4 0.8v1.6zm57.7-0.8h-0.4l-1.6 0.8h-0.9v-0.8 0.8l-0.8-0.8-0.4 0.8h-0.8v-0.8l-0.8 0.8h-0.8-0.8v-0.8-0.8-0.8h-0.4v-0.5l0.4-0.8h0.8 1.6l0.8 0.8h0.4 1.7 0.8 0.8 0.4 0.8v0.5 0.8zm7.3-2.1v-0.8h0.8zm-132.1 3.7l0.5-1.6 1.6 0.8 1.6-2.9h1.2m0 0h0.8v2.1m125.2-2.1h0.8zm8.1 1.3l0.4-0.8zm0.4 0.8v-0.8h0.8v0.8m-13.8 0l-0.8-0.8h0.8 0.8zm13.8 0h-0.8m0.8 0h-0.8m-133.7 0l-0.8 2v0.8 5.3l-1.2 1.2-1.6 0.8-0.8 1.7m680.9-11.8l1 3.6 3 10.2h3l2 2.8 5 2.5 2 3.6 4 2.1v1.6l4 2.8m-35-8.1l-1-4.9 3-6.9 1-3.6 2-2.1 4-0.8 2-2.8m-542 0.8h0.8zm0 0h0.8zm-138.9 11h-1.3v-6.1-4.1m-16.2 17.5l0.8-2.9-0.8-0.8 2.8-4.5h6.5v-1.6l-1.2-0.4-0.8-2.4-1.6-0.8-1.2-1.3h2v-2.8h9.7m129.3 0.4l0.8-0.4h-0.8 0.8 0.8 0.8-0.8l-0.8 0.4zm7.3 0v-0.4zm9.7 0.8v-0.8h-0.8l0.8-0.4v0.4h0.4zm-7.3 0h-0.8l0.8-0.8zm2.8 1.6h-0.8l-0.8-0.8h0.8zm199.5 2.1l-0.8-1.2 1.7-0.9 0.8 0.9zm-195-0.8h-0.8v-0.4h0.8 0.4v0.4zm-2.4 1.6v-0.8 0.8h0.8zm616.3 0.8l-4 0.8-2 2.9m-343.4 6.5l-3.6-2.1-2.9-5.3-2.8-0.8-2.5-2-6.5 0.8h-3.6l-0.8 2m-240.6-1.6v-0.4h0.8v0.4h0.9v0.8h-0.9-0.8v0.8l-0.8 0.9-0.4-0.9v-0.8-0.8h0.4zm606.7 2.5v2l-5 2.4-4 0.4-7 3.3-2 2h-4l-3 2-4 1.7-6 0.8-3 2.8-6 0.8-2-1.6-4-15.4 1-3.7m-317.5 15.5l-3.3-7.4 3.3-4.8 0.4-1.7m-238.9 0.9h-0.9 0.9v-0.9zm-144.3 1.2l2.9-1.2 0.8 0.8h1.6 1.2 3.7l3.2-0.8h1.3 2.8l2.4 0.8h1.3l1.6 1.2-0.8 0.8 1.6 0.8h2.8l0.8 1.2m-30.8-4.8l1.6 1.2 0.8-0.4 1.2 0.4m0 0l-2 1.6-2.9 2v0.8 0.9l-0.8 1.6m149.1-3.7v-0.8-0.8l-0.8-0.8v-0.8h0.8l0.9 0.8v0.8 0.8zm202 1.2l-0.8-0.8v-1.2l1.6 1.2zm903.9-1.2v-0.8h1zm-807.6 25.6l2.4-8.1 2-0.8 2.5-3.7v-2l1.2-2.4 4.5 1.6 2-4.5 1.6-1.6 7.3-2 2.1-2.1 5.3 1.2m-445.4-0.8h-1.6l-2 1.7-3.7 0.8-2.4-0.8-0.4 1.6-0.8 0.4-0.8 0.8-2.1 2.4-1.6-1.6-1.6 1.6h-2v2.9h-0.9l-0.8 1.2h-1.2m21.9-11l-0.8 0.8 0.8 2.9-1.6 2.4-0.8 2.9 0.8 5.7-1.2 0.8v2.4 0.4l-0.8 2.5v0.8l1.2 1.2m447.8-22l-0.9 2.5 2.9 4 1.6 0.9v2.8l5.7 3.7 2.4 2.4m213-2.8l-3-3.7-3-2.4-2-3.7-7-2-6 0.8-3-2.5-2 2.5-5 1.2m-520-0.8v-0.4h-0.8l-0.4-1.6-0.8-0.9h0.8 0.4v0.9l0.8 0.8v0.8zm264.1 11v-3.7l-3.7-2.8v-3.7l-0.8-2.8m623.4 23.5h2l4-3.2 2-4.1 2 0.4 4-2.8 2-0.8v-3.7l1-2-2-3.7 1-3.6m0 0l-4 2-1-1.2-7 2.8v-1.6m-1043.4 3.6l-2.1-1.2h-3.2-1.2l-2.5-1.6-2-2m1054.4 1.2l-3-0.4-4 0.4-2-0.4-3 1.2-2 2.4-1 1.3v4.4l1 1.7v1.2 0.8m-1025-13l4.5 2.8h1.2 2.5l0.4 0.8-0.4 2.1m-12.6-1.7l0.8-0.4 3.6-3.6m659 26.8l3-7.3h1l1-4.5 4-4.9 2-0.8 2-8.1m-520.8 2.8v-0.4h-0.4v-0.8h0.4v-0.8l0.8 0.8v0.8zm398.8 0l-4 1.7-3 2-5-2-7 0.8-2 2.8-6-0.8-5-2.8-3 2-4-2.8-4-2.1-6 1.2-2.4 1.7v2l-2.1 3.3-0.8 4m-487.5-9.3l-0.9 1.6-4.4-0.8-2.9-0.8-2.8-0.8-1.6-0.9m556.4 3.7l-2-3.7m-161.5 0.9h5.6l-1.6 2.4-4.9 0.4m0 0l0.9-2.8m734.5 6.5l-4-6.5h4l2 2.4 1 2.8zm-98 1.6l-2-0.8-3-2.9h-5l1-3.6h-5v6.5l-5 10.1v3.7l2 2.4h2l1 2.9 1 1.6v3.7 1.2l5 3.6h2l2 2.9m229-37.8l-1-0.8h1zm-1239 1.2l-1.6-2h-1.2m142.6 1.6h-0.8v-0.8-0.8h0.8v0.8zm8.5 0.4h-0.8v-0.4-0.8l0.8 0.8zm392.7 0l2-0.4 3 5.7v7.3l3 3.7-4 0.8h-3l-2 1.2 7 6.9 2 4.9m-37 14.6l1-2v-3.7l7-6.5h3l4 3.7 3-6.9 2-4.9 3-0.8v-3.7l1-0.8 1-2.8 3-5.7 4-2.5v-3.6l-2-0.8-1-3.7m-164.4 3.7v-3.7m-368.1 10.6l-1.2-0.8-2.8-2.9-1.6-2.4-1.7-0.8-3.6-2.9 0.8-0.8h1.6m696 1.6l2 4.5-1 2.8m-5-5.6l4-1.7m56 0l1 0.8 2-0.8v0.8l1 0.9-1 0.4h-2l-2-0.4v-0.9zm-375.4 2.1l5.7-0.4 2.5-1.7 7.7 0.8m0 0h3.6l3.7 1.3h5.3m-19.1 7.3l1.6-2.9 4.9-0.8v-4.9m-299.9 1.3l-0.4-0.4v-0.9l0.4 0.9zm1044.4 7.3l-2-0.4-1-3.3-4-2.8-1-2.1h5l2 2.1v3.6zm-442 0h-5l-1-2.9 3-4.8m-639.6 20.3l3.7 3.6v-3.6l4.4-3.7h1.7l0.8-6.5 3.6-2.8 1.3 0.4 2.8-2.1 3.7 0.9 9.7-6.5 0.8 3.6m320.2-3.2l3.6 2.4 2.1-1.6 3.2 0.8 4.1-1.6 0.8 3.6 2.4 1.6 0.4 5.3 1.7 1.2m55.6-9.3l2.1-2.4 3.6 3.6m-386-2l-1.6-0.8-0.8-0.8h0.8l0.8 0.8h0.8zm287.3 5.7l-2-0.4-0.9-3.3h-2l-4.5-3.6m-275 0.8v0.8-0.8h-0.8v-0.8zm34.9 0l0.8 0.8h-0.8v0.8h-0.4zm-51.6 2.4l-3.2 1.2 2.4 4.5-2.8 5.3 2.8 4 2-1.2v-2.8l-2-4.5 0.8-2.4 7.3-2.1-1.6-2 1.6-2.4 2.1 4.4h4.4l2.1 1.7m491.2 10.1l3-2.8 4-0.8 2-1.7 3-0.8 2 3.3 2 0.4h6l2-2 6 1.6 5-2.5 3 1.7h4l4-6.5 1-4.5 3-0.8 2 6.5 3 4.5 1 2.8m376-4.9l-3-0.8-6-6.1-1-2m-317 3.6l5 5.3h4l4-2.4 5 0.8 4-2h3l11-2.5 4-2 2 0.8v3.7 3.6l-1 0.4-1 5.3-3 4.5-2 3.6-4 5.7v3.7l-6 8.9-6 7.3-5 4.5-8 4.1-5 4.4-8 9-2 3.6m-217.1-68.2l2-2.1h3.7l2.4-2.8m-394.1 0.8l-3.2 0.4m1041.3 2.5l-2 2.8-4 1.6v-6.9zm-638.3-2.5v1.6l1.6 3.7-1.6 5.3-3.6 3.6-0.8 6.5v8.2m-398.6-28.9l-4.9 6.9-0.8 6.5 3.6 4.9-0.8 4.5 2.5 2.4 10.1 0.4 3.7 4.5 10.1-0.8-1.6 5.3v4.4l1.6 4.5 1.7 1.2-3.3 2.9 3.3 2.4 2 6.5m588.1-54.9l-2 2.1m439 2.4h-2l-2-3.6 3-0.9 1 3.7zm-993-2.8l0.8-0.8 0.8-0.9v0.9l-0.8 0.8zm-132.5-0.8l3.7 1.2 1.6-0.4 1.6 0.4 1.3 1.6h1.6 0.8l0.4-0.8m-11-1.2v-0.8m92.3 0.8l1.6 3.6 10.2-0.8 1.6 1.2 5.7 1.7 2.8-2.1 8.1-1.6-0.8 1.6 2.9 4.1 2.4-1.2 2.8 0.8 2.9 2-2.9 5.3 3.7-0.8h3.7m-20.4-13.4v0.8h-0.8l-0.8-0.8-0.8 0.8-0.8-0.8 0.8-0.4 0.8 0.4h0.8v-0.4h0.8zm340.1-0.4l0.4 2 2.5 2.8 1.2 9.8v5.7l-0.4 2 1.2 3.3 2.4 1.2m-1.6-26.4l-5.7-0.4m0 0l-3.2 0.4h-11.4v1.6l1.2 6.5m-428.6 8.1l-0.4-0.8-3.3-1.2-0.4-0.8 0.4-1.6v-0.9l-2-1.2-1.6-1.6h-2.1l-0.8-2-1.2-1.7v1.7h0.4v0.8l-0.4 1.2-1.6-1.2-1.7-0.8-0.4-0.8-0.8-1.7 1.2-1.2v-2.8m686.5 0.4l-1 2.4 4 6.5 2 2 17 5.3h5l-5 5.3-11 11.4h-6l-4 1.6-1 1.6-6 2.1m-140-19.1h1l4-1.2 2 0.4 4-2.1h5l3-3.6v-1.7l7-0.4 6-6.1 1-2 4-2.4 2 0.8m-113.4 24.8v-14.7l-1.7-4.8-2.8-2.5 0.8-3.6m-353.1 0.8h-0.8v-0.8h0.8zm277.1 10.1l-1.6-4-3.7-1.6-3.6-5.3m-366.5 0.8l0.8 2.4 1.6 2.1 2.1 2 0.8 0.8m563.2-7.3l4 5.3v3.6m528-0.8l-1-2.8 3-0.8 1-4.5 2 0.8-2 4.5 1 3.6-1 0.8zm-980.2-8.1h0.4 0.8l-0.8 0.8v1.6 0.4 0.8l-0.4 0.9h-0.8-0.9-0.8-0.8-0.4-0.8 0.8l0.4-0.9h0.8v-0.8h0.8l-0.8-1.2-0.8-0.8h1.6 0.9zm961.2 4.5l3-4.5 1 2.4-3 2.1zm24 0l2-4.5 1 2.8zm-701.6-0.9l1.6-1.2 2.8 1.2 4.9-2v2l3.7-1.2m15.4 4.9l-2.8-2-5.7 0.8-3.7-0.8-3.2-2.9m563.6 22l-2-3.3-2-3.6-3-2.1-1-2-2-0.8 1-3.7 2-6.1m-572.5 14.7l1.2 0.8 2.5-4.9v-5.3l-1.6-1.6 0.8-2.9m706.6 0.9v2h-3l2-2.9zm-719.2 8.9l-2.1-4.5-2.8-4.4-6.5 0.8-0.8 2.8-3.7 2m730.1 9l-2-2-2 1.2-1-1.2-2 4-1-0.4 2-5.3 4-0.8 2-2.8 4 2.8 3-4.5 2 0.9 2-1.3v-3.2l4 3.6 1 6.1v3.7l-2 2-3-2v2l1 4.5-1 2-2-1.2-4-1.6-2-1.2-1-3.7 2-1.6-2-1.6-2-0.4zm-223 3.6l-2 2.9-4 1.6-2-0.8-2-4.5v-8.1l1-5.7 2-1.6 2 2.4 3 4.5 3 5.7zm-877.2-15.4l-1.6-0.8v0.8 2.4l0.8 0.4-0.8 1.7v1.6 0.4 1.6m1.6-8.1l1.6 0.8 0.4 2h0.8 1.7l1.2 0.9 1.6 0.8 2-0.8 1.7-0.9 2-1.2 3.2-2.4 2.9 0.8v0.8h2.8l2.9 0.8 1.6 2.1 1.2 0.8m605.6 21.9l-1-3.6-4-1.7-1-5.7-6-5.2-4-0.4 2-3.7 4-0.8v-5.3m-196.2 0l0.8 7.3-1.6 1.6-2.8 6.5 2.4 5.7v3.3m141.4-22.8v2.9h3v2l4 0.8 2 3.7 6 4.4-1 1.7 5 3.6 2 3.7m-208.7-10.6l-4.9-2-2.4-3.7-2.1-2v-3.3m-344.5 9.8l-1.6-1.6-1.3-2.9 0.9-2h-1.7v-0.8l-2-1.6-1.6-0.9h-1.7l-1.2 0.9v1.6l-2.4 1.2h-1.2v1.6l2 2.1-2 2.4h-2.5l-0.4-1.6-3.2-1.2-1.2-2.5h-2.5l-0.4-0.8h-3.2v1.6m29.2-3.6v0.8l0.8 2.8v1.7l-1.2 1.2-0.8-0.8-0.8 2.4m95.1-7.3l4.4 2.8 3.7 3.7v2l2.8 0.8 4.5 4.5-0.8 2.8m-18.3 1.7l-3.7-4.5 0.9-2.8 4.4-2.5-1.6-2.8 5.3-4.5-1.6-1.2m275 4.9l-2.8 2.4-2.5-0.8v-5.3l-4.4-0.4m-6.5 7.7l5.3-4 1.2-3.7m773.2 5.7v-0.8-0.8l1 0.8zm-758.6 16.2v-8.1l-1.2-2.4-4.5-1.2 2-1.7-1.2-4.4m128.5 0.8l-4 6.5-2 5.3 3 7.3 6 5.7v3.6m815-26.8v-0.8zm-1321.9 30.5l-0.4-1.2 2-3.7 3.7-1.6 3.6-4.9-1.6-2.4 0.8-2.1-1.2-8.9 1.2-2-2.8-3.7m807.6 2l-1 1.7-1-1.7 1-0.8zm452 0v-0.8h1zm-884.6 13.4l-8.5-3.6-6.5-6.1-5.3-2.9-0.8-1.6m675.7 11h1l2-1.2 3-5.3 2-2 4-0.9 2 0.9 1 3.6 3 0.8 4 2.9m-102-6.5l2-0.8 4 1.2m-494 8.1l-2 1.6-5-0.8-3 1.6-4 0.4-3-2.8-1-2.8-4.8-5.7h-4.5-4.4m529.7 0.4l7 5.3 1 2 1 3.2-1 3.7v3.7l2 2 3 5.7h-5l-7-3.7-3-3.6-1-2.1-4-3.6v-4.5l-1-1.2v-5.3l-2-2m-519.7 0l-5.7 0.4m531.4 0v3.6l2-1.2 2 0.8v-3.2m-535.4 0l-2.1 0.8m0 0l-1.6 1.6-3.6 0.8-5.7 2.9-4.5 0.8-1.6 1.2-4.9-1.2m-290.5-2.5l1.6-2.8 9.4 0.8 0.8-0.8 5.7 0.8-0.9 2.9m0 0l0.9-2.1 5.2 1.2 5.7 4.5 1.7 2.9m787.8-6.5l3 0.8 6-0.8 2 2 2 4.5 5 2.8 5 4.5 1 2.4h2l3 2.9 4 2 1 2.4 6 2.1 1 1.6-1 4.9 2 1.6 3 0.8 1 3.6 2 2.9 4 0.8 2 4.1v3.2l-2 11-2-2.5-4 1.7-5-4.5-1-0.8-6-4.5v-1.2l-4-2.4-4-5.7v-1.6l-2-5.7-3-2.9-1-1.6-3-1.2-2-6.9-2-2.1-4-2.8v-2.4l-4-4.1h-2l-5-5.3-2-4.5 2-0.8zm-817.9-0.9l-2 2.5-2.5 5.7 2.5 2.8 6.5 8.1m448.4-16.6l-2-0.8-3 0.8-5-1.6-2 1.6h-5l-6 2-2-0.8-2 2.8-10-0.4-4-3.6-2-0.8-4 4.4-1 4.1m-390.3 6.9l2-3.2 0.9-3.7-2.1-2.8v-4.9l1.2-1.6m273.9 1.6l-8.1-1.6-7.3 1.6-9.8 3.6m-283.6-4.4h2.8l1.7 3.6 1.2 2.9-1.2 2-0.8 4.5 1.6 4.4 2.8 2.9 3.7 0.8 6.5-4.5 4.5 0.8m-55.7 3.7l2.8 2 6.5-1.2 4.5-2.4 1.6-2.1-1.6-6.5 1.6-4.4h3.7l9.3-1.7 2.9-1.2 1.6-3.6m960.2 0l-5 1.2 2 3.2-5 0.4m-19-2h1 1l1-0.8 1-1.2h1v0.4m-467-0.4l1 2 3 2 3-1.2h5l2 2.9 3 2m445-5.7v0.8h1v0.8l1 0.4 1 0.9h1v-1.3-0.8-1.6h1v-0.8m1 0l-1 0.8v0.8 1.6h1 1v-0.8-0.8l-1-0.8zm-563 14.2l1-4.5-2-3.6-3-1.6-2-3.7m177 4.5h-3l-2-1.7-5 2.5-2 2-8-1.2-6-4.5-5-0.8m-11 2l2-2h9m394 13.8l1 2.5 6 0.4 1-4.9 2-2.4 7-1.3 5-6.1 1-2m-218 0.8h-1v-0.8zm195 13v2.5l4 4 4-1.2 2 0.8 3-3.2 3-0.4 5 2 1-1.6h4l1-2.1v-2l3-3.6 2-7v-0.4h8l2 0.4m-447 28.1v-6.1l1-2.9 5-4.8-1-5.3-1-2-4-7m0 0l-2 2.5-3-0.8-6 2-3-1.2-3 1.2m464-3.7l1 3.3h-3l2 4.1 2 3.2-1 2.9 4 2 2 2.8-4-0.4-2 0.4-2 3.7v3.6l-3 3.7-2 1.6v5.3l-3 4.9-1 1.6-6 2-1-3.6h-4l-3-2.1-3 2.1h-4v-2.1h-9v-4.4-5.3l-4-2-2-2.9-1-6.1 1-3.6 4-2.9m-861.8-10.9l2.8 0.8 0.8 4.4 2.9 7.4h2.8v3.6l-4.5 4.5-2.8 2-4.5 8.1 6.9-3.6v2l0.4 2.4 4.5 0.5 5.3-0.5 2.8-3.2 1.7-2.8 4-0.9 3.7 2.5 9.7 2.8 2.1 4.5 2.4 0.8 3.6-0.8 4.1 2 6.9 0.8h6.5l8.1 4.5 7.4 6.5 2 0.8h3.6l3.7 0.8 0.8 2.1 2 8.1v4.5l-2 5.6-6.1 8.2-3.6 1.2-3.7 7.3-3.6 4.5h-2.1l-1.6 2.8 0.8 3.3-0.8 3.6 0.8 6.1-1.2 8-0.8 3-1.7 2-0.8 7-3.6 7-1.2 2-1.7 4v2l-4.8 3-1.7 3h-7.3-1.6-4.1l-0.8 2-5.3 2-6.5 4-5.6 4-3.3 4v11l-0.4 6-3.3 2-3.6 6-1.2 3-2.5 1-2-1-2.8 5-1.7 1-1.2 6-3.2 6-2.9 3m-6.5-203.5l2 0.4 2.5-0.4 4.5 0.4 1.2-0.4 3.6-8.1 1.7-1.6m498.8 0.8l-5 5.7v19.9l4 4.4m-175-28v1.6h-2l1-2 1-0.8zm346-0.4v0.4h-1zm-294 0.4l-6-0.4-4 0.4-3 7.3m78-7.3v6.1l3 1.2-1 2.5-6 4.8-2 3.7v8.1m-59-26.4v1.6l-3 5.7v6.1 3.7l-2 4.8-4 4.5-4 4.5 1 5.7-2 3.6-2 0.8-4 3.7h-3v-2.9l-4 3.7-2-1.6m320-40.2v0.8l-1-0.8zm-691.4 5.2l2-2 6.1-1.6 2 1.6m352.3 0.4h-8l-1-0.4m0 7.3l-2-1.6 2-3.7v-2m19 0.4l-10-0.4v0.4m25 0l-2 1.6-7-1.6h-6m-10 0v6.9h-9m7 26l2-2.8 2-4.9 6-0.8 6 0.8 1-3.7 1-6.9-3-2v-2l3-3.7-1-2.4h-4l-2-1.2 1-3.3m-444.8 34.5l2.9-14.6-0.8-5.3-2.1-2v-3.6l0.4-6.5h9.8l4.5-2.5 2 5.3m746.1-4.5h-1-1 1zm-1228.7 1.7h-0.7l0.7-0.9 0.7 0.9zm1520.7 3.6l3-0.8v2.8l2 2.5-5-1.6-1-3.7 1-2.8 2 1.2zm-14 0.8l-3 2.9-4 0.8-3-1.6h-7l-4 0.8-3-0.8-2 2-1 2.4 2 2.9 2 2.8h2l2-2.8 4 0.8v-1.6h4l-3 4.4-2 0.8-2 2.9 2 0.8 2 4.5v2.8l1 0.8v2.9l-2 0.8-1 1.2-3-0.8 1-2.9-3-2.8v-4.5l-2-0.8-2 1.6v1.7 7.7 4.4l-2 1.7-3-2.5 1-4v-3.3l-1-2.8-2 0.8v-5.3l2-3.6v-2.9l2-3.6 1-7.4 3-0.8 2-2.8 10 2.4 6 0.4 3-1.2 3-3.6 1 1.2zm-274-2.4v-0.8zm162 0l-1 0.8-1-0.8v-0.8h1zm-975.9-0.8l3.7 3.2m-11.4 23.2v-3.7l-3.3-2v-4.5l1.7-5.7 2.8-3.2v-3.7l6.1-2 0.4-1.6m479.9 29.2l-2-3.6-5-3.7-2-4.1-3-5.2 3-2.9v-5.3l2-1.2m-469.2 0l6.9 3.7 4-0.8 4.5 2.8m796.8-4.5h-1-1l1-0.8zm-360 3.7l-1-1.2 1-0.8h1zm-520.9 5.3h-2v-0.8l1.2-1.7-1.2-1.2v-1.6h-1.7l1.7-0.8 0.8 0.8 0.4 1.6 0.8 0.8 0.8 1.3zm84.1-4.5l4.5 2 0.8 2.5 2.8 1.2 1.7 3.2 2 0.5 0.8 3.2h3.7l2-1.6h5.3l4.4 2.8-3.6 5.3 2 0.8 1.6 2m-28-21.9v2l-1.2 5.3-3.3 2.9-2.8 2.8-6.5 2.4-2.9 2.1-3.6 8.1-6.1-5.7-0.4-2.4m167.4-10.2l-9 1.6-1.2-2.4v-3.6l1.2-2.9 5.3 0.8 2.1-0.8 4.4 0.8-0.8 2.9zm651.2-7.3v0.8l-1-0.8zm363 48.4l-6-6.1h-6l1-1.3v-1.6l-1-1.2v-2.4l-2-2.9-2-4.5-4-2.8h-3l-5-2-3-0.8-5-2.9-4-1.6-2 2.8h-2l1-2.8-2-2v-2.5l3-1.2-6-2.4-1-2.1-1-0.8-4-0.8 1-2.8 4-0.8 3-2.1 4 1.2 1 0.9h3l1 3.6v1.6 3.7l3 1.2v2.4l2 1.3h2l4-3.7 1-2h2l2-2.1 3-1.6 5 1.6 6 2.9h2l5 1.2m-1234.4-11l-0.8 1.7-1.3-0.8 0.4-0.9zm874.4 0.9l-1 0.8v-0.8zm137 6l-2-0.8-2-2.8 2-0.8zm-367-3.6l1-0.8h17m28 19.5l-7-4.9-1-3.7-19-10.9h-1m-18 0.8l1 2.8v3.7h-1m-5-5.3l2 0.8 3-2m-5 1.2l-2 2.4-2 2.9 1 2m232-5.7h-1l1-0.8zm182 6.5l-4-0.8-1-3.6h-2v-2.1l4-0.8 1 4.5 2 1.2zm-347-6.5l-4 2.1v1.6l-4 2v2.9l-4 7.3h-1m-46-12.2l1 3.6-4 6.5-3 0.9m-2-9h4l4-2m415 2.8l-1 1.7h-2v-3.3zm175-1.6l10 3.7 3 0.8 3 2.4h2l3 2.9 4 2v3.6l3 0.9 4 1.6 2 0.4 2 3.7h-4l2 4.4 3 2.9 1 2.4 9 8.5 1 2.5-5-1.7-7-0.8-1-0.4-2-2.4-5-5.7-1-2.4-8-2.1-2 0.8-5 4.5 1 2-5 1.7-2-0.8h-4-2m0-35.4v35.4m-365-34.6v-0.8l1 0.8zm-231 9l-1-2.5v-4.9l-1-1.6m537 0l5 2.5 2 2-1 1.6-4-2.4-5-0.8-3 0.8-2-2.9h6zm-13 4.5l-3 1.6-4-2.4 1-1.2 3-0.9 3 0.9zm-1055.2 80.2l-4.5-3-1.2-2-19.1-11-4.5-4.1-1.2-3.2v-3.7l-5.3-9.3-2.8-2.1-6.1-14.6-2.8-3.6-2.1-4.5-2.4-2.9-4.9-3.2 1.2-2-2.8-5.3 0.8-2.1 5.3-4.4m1242.6 2.4l4 2-3 1.7zm-750 6.5l-1-2.8-4-3.3m332 0v0.8l-1-0.8zm-762.7 37.4l-5.3 0.8v-8.9l-4.1 3.2h-4.4l-0.9-2.4-4.4-0.8 1.6-2.1-3.7-3.6-0.8-5.3v-2.8l2.9-2.1v-2.4l1.6-4.1 4.9-3.6 6.9-2.5 3.6 0.8m669.8 2.9l-1-2 1-1.7 2 3.7zm501 4.5l6-0.9h3l1-2.8 3-0.8-1-3.7 4 1.7 1 2-3 2.4v2.1l-8 3.6h-4l-7-2.8v-1.7zm-733-2.9l4-3.6 2 1.2m87-1.2v2.8l1 4.5v4.4l3 2.9 3 5.7m-94-19.1l-3 2.4-2 3.7m144-6.1l-2 7.3v2.4l4 3.7-1 8.5 2 2.5 1 4.4 2 2.9m-150-25.6l-1-3.7m766 4.9l2 2.4-1 2.1-2-0.8-1-2.1-2-2 2-1.6zm-760-0.4l-4 0.4-1-1.2m5 0.8h8 9 1l3 7.3 2 4.1 5-0.4h6v-5.3h4l1 1.6h7l1 6.5-1 4.9 3 5.3-1 2.8 6 0.8 4-0.8m-65 35.8v-9l1-1.2 1-4.5 2-7.3 5-4 2-4.5v-4.5l-3-5.7-2-5.3 3-3.6-7-12.6 5-0.4m496 0l4 0.4h3l2 1.6h3l2 2.1 9 1.6 2-2.9 3 1.3 1-0.5 4 1.3h2l1 4.4 3 0.8 4-0.8 2 1.7-1 3.6-3-0.8-2-0.8-3 0.8-6-1.6h-5l-3-1.2-5-1.7-4 0.8-5-1.6-5-0.8v-1.2l-3-1.6-1-2.1zm275 7.7l-3-0.4-2-2.4-1-0.8 1-0.5 3 2.1v0.8zm-455 0v-0.4zm353 5.3h-4l2-3.7 4-1.6 1 1.6-1 2.1zm114 0.8l-4-2.4-2-1.3v-0.8l2 1.7h2l2 2zm-11 0.8l-1-2.4h-2l1-1.2 1 0.4 2 2.4zm-227-3.2l2 2.4-2 0.8-3-1.6zm53 1.6l-4 0.8v-2.4zm-37-0.8l4 0.8v1.6l-10 2.9-1-3.7 2-0.8 3 2zm-455 6.5l-11-4.9-1-1.6m0 0l-10 1.6-2 4.5 1 2.8v4.5l-2 4.9 1 1.6 4 2.8 3-1.6-1 6.1-2 1.2-5-5.7-2-0.8-4-3.6-3 2.4-7-2.4v-1.3l-5 0.4-2-2.8m494-11.8l-3 0.8 1-2.8v-0.8l3 0.8zm24-2l2 1.6-2 1.2-6-0.8 2-2.8zm215 4.5v1.2l-3-2.1v-3.6l1 1.6v0.4zm95-2.9v-0.8h1zm-289 1.2l1-1.2 4-0.8h3v2l-6 2.5-1 0.4m0 0l-4 4.4-3 0.9h-2l1-3.7 2-2 2-0.8 3-1.7m0 0l1 2.9m190 2.4v0.8l-2-0.8h-3l-1-1.6v-1.2l2 0.4h2l1 0.8zm-218-2.8l5 3.6-1 1.2h-3l-3-2-2-0.8 1-2zm-464 0.4l2 0.8 4-0.8 2 3.6 1 5.3 1 2.9m-8 13.4l-3-2.5 3-8.1v-4.9l2-3.6-2-5.3-2-0.8m-547.7 8.1l7.3 0.8 1.6-2 4.1-2.5 3.2-1.2 2.9-0.8h3.6l-0.8 3.7 0.8 4.8 2.1 3.3 2.8 2.8h3.7l10.5 5.7 4.1-0.8 3.2 2.5 0.4 4.4 0.8 8.1 9.8 1v6l3.7 1 0.4 3-2.9 9v2m1176.4-51.6h-2l-2-1.2v-1.7l2 1.7h1zm-302-1.2v-0.8zm-349 0l2 1.2-2 3.2 2 7.8-1 3.6 2 7.3-2 3.7-4 6-3 2-7 3-3 2-6 6-2 2-5 4v4l2 3 2 11-1 4v2l-1 3-8 3-5 3-1 3 1 4m11-86.1l7 0.8 4-0.8 3 0.8 3-2.1 2 0.4 5-1.2 5-3.6m-87 2v11.8h-11v17l1 2 8 7m-496.9-1l-0.8-2 2.8-3-2-6.2 0.8-3.7 2-3.6-0.8-2.9 0.8-4.4 1.6-2.1-5.2-8.9m1137.7 15.4l2 3.7 3-0.8 5 3.6v8.9l4 7-1 3 2 3 7 6 6 2v3l2 2 3 7 6 2 1 4 3 4 5 5 3 4 1 11 2 5-2 17-4 9-4 2-4 10-2 5-3 5-1 7v4l-2 2h-6l-5 2-3 4-5 1-4-3-1-4-8 7-6-3h-4l-7-4-3-4v-3l-3-9-3 2-1-6-2-3-3 4 1-7 1-2-1-3-3 4-4 3-4 6-2-4v-3l-5-5-1-5-8-3h-3l-5-3-11 1-9 4h-8l-10 6-3 4h-8-11l-4 4h-1l-5 4h-9l-4-4-3-2-1-3 5-3v-8l-4-9v-7l-5-8v-4l-2-4 2-2v-5l-4-8 2-4v-6h3l2-4 4-1 7-6 4 1 19-6 2-3 2-3 3-3-1-4 3-4h5l4-5 6-8.5h5l3-2.9 5 4.5 9 2-1-2.8 2-5.3 2-0.4 1-3.6 4-1.7 5-0.8 3-0.8v-3.7l11 3.3 10 0.4v6.1l-4 2v2.9l-2 4.4 7 4.9 5 2 2 3 5 1 2 3 3 2 5-2 3-7 1-6-1-6.5 1-2.9v-5.3l1-1.6 2-6.5 3 0.8 1 4.5 2 0.8 1 4.9zm-534-9.3l-1-0.8v-2.5h1v0.9zm-46-2.4h-1l-2 2.8 2 6.9 2 2 4 5.3v7.1l-2 1v6l-7-7 3-3.4-2-5.3-3 0.8-2-2.8m339-9.8v-0.8zm-270 19.5v-2l4-1.2 2-1.7 1 0.9 1-2.1v-2.4l1-0.8v-2.1-0.8h2l2-1.2 2-3.2-2-1.3 2-1.6 3 0.8v1.7l1 0.4 1 4.4 1 3.7v1.6l1 2.9v0.8 2l-1 2.2-1-1-1-2-1 0.8 1 3.2v3l-1 1-1 3 1 2-1 3-3 8v1l-2 3-1 5-1 3-1 4-1 2-1 6-1 3-2 3-2 2h-2-2l-2 2h-2l-2-2-4-2-1-2-1-1-1-8v-1l-1-3 1-3v-1-2h2v-2l1-1 2-4-1-2 1-1-1-2v-2l-1-2v-4l-1-2 2-4 1-1v-2h3l2-1h1l2-1zm-6-15l-1-1.6h1zm-1162.6 2h1.4l0.7 0.8v1.7h-1.4zm6.6 3.7l-3-0.4 0.8-0.8zm1077 8.1l-1-3.7 17-4.8m-1128.9 2v-0.8zm39.5 0h-0.7v-0.8h0.7 0.8-0.8zm1803.4 4.5l1 2-2 1.2-1-2v-1.2l-1-2.5 2 0.8v1.7zm-730 2h-3l-5 2.2-1 3-5 3-4 5-2 1-7-2m32 27l6-7v-4l2-2v-9l1-7-1-4-4-1-4-3h-5v-2.2m-192.8 2.2v-1l0.8 1zm924.8 4l-1-1v-2l3 1zm65-1l-2 1-2 1-1-1 2-1 2-1v-1h3zm-833 7l-12 2-5-2h-9l-2-2h-22l-6-3-3 3h-4m14 30l-5-10-5-10-4-7v-3m888 4l-1 1-3-1-1-2h1l1-1 1-1h2l2 2 1 2h-1zm-825-2l3-2 4 1 2 1m-493.7 29h-3.7l-0.4-5-1.6-4-2.1-4-0.8-3 2.1-3-2.9-2-1.6-6-1.2-3m-5.3 4l2.4-1 0.4-2 2.5-1m1268.9 1l1-1 1 1zm-1694.6 0h-2.2l1.5-1zm931.6 0l4 7v3l6 3 3 3v3l2 3 5 1 2 2m-51 16v-17h6v-21l12-2 2 3 4-3 5-1m-500.2 233l-4.5-1-2.8 2-5.7 2-0.8 9-1.7 2-4-2-2.5-2 6.1-4v-3l-6.1 5-2-1-0.8-3-3.7-3 0.8-4-3.6-9 0.8-2-1.6-5v-12l1.6-2 0.4-5-3.7-1 3.3-6-1.6-1h-2.9l-2.8-2 3.6-3 0.4-2h3.3l2 2 1.7-3v-6l3.6-2 0.4-2-2.8-1 0.8-4v-4l1.6-2-0.8-5 1.2-1-0.4-4-2.4 2h-2.9l-1.6-6 1.6-7h1.7l1.2-5-2.1-6v-8h2.1l0.8-3 2-8 2.5-3 0.8-6 2-4 1.6-7-1.6-9v-4l2-3-1.2-6 2-3 0.9-8h0.8l2-11-0.8-3 0.8-5-0.8-5 1.6-1 1.6-8-0.8-4v-4l-1.6-10m1280.2 4l-2-1 1-1zm-1811 1h-0.7l0.7-1 0.8 1zm596.5 5v-1l-4.9-3h-5.2l-9.4 2-2.4 5v3l-2.1 6m641.4-9l-1-1 1-2h1v1 1zm-598.3 29l1.6-7-2.4-3-2.8 1-1.7-3-0.4-5-1.6-2-8.1-1-2.9-1 0.8-5-1.6-6m1201.4 14l-4-2-2-3h-2l-3-2v-1l-2-1-2-2v-2h2l2 2 2 1 2 3 2 1 4 3h1zm-594-8h1l-1 2-2-1v-1l1-1zm596 0h-1l1-1 1 1zm-1827.7 1l-1.5-1h0.7 0.8zm81.8 0h-0.7v-1h0.7zm494.2 9l2.4-4 2-1h7.4l2.4 1 1.2 3 1.6-4h6.5l0.8 1m491.4 0l10 2m-10-2l-6 2-4 5-3 2-1 3-2 2-3 1-1 5-5 1-4-1-3-2-3 1-2 4-5 5-5-1 1-3-2-7-3-1m-440.4-16l3.7 5 4.9 5 5.3 1 6.5 5 6.1 2 0.4 2-2.9 4-0.8 3-2 2 8.1 2 4.9-1h3.2l1.2-1 3.7-4 0.8-5m462.3 2v-9l-3-6-1-5m-79 36l-4-3-2-5-3-9v-5l-2-5v-5-3m-442.2 205l-8.6-3h-10.5l-2.1-5 0.9-5-1.7-3-3.6 2-2.1-5 0.9-7 4.8-4 0.8-4-0.8-4 3.7-5 0.8-4-0.8-9 2.8-1-1.2-3 2-3-3.6-1 0.8-4-2-7 0.4-9 0.8-10 1.6-5 0.8-5 2.9-1-1.7-7-0.8-5 1.7-3 2.8-2 0.8-10 2-3 0.9-5-4.5-11 1.6-6 2-3-0.4-6 2.1-5 2-2 2.4-6 2.9-1-2.1-2 1.3-2-1.3-5 0.5-3 1.6-3 5.3-2 1.2-6-0.8-1m-326.7 9h0.7zm791.4 3v21l-2 1-2 2h-5l-3-1-3-4-3 3m-379.3-18h3.7l0.8 4-0.8 5-5.3 2-5.7 6-2.8 4-6.1 7m478.5-26l-3-2-4 5 3 4 4 1v-3m0 0v-5m4 5l-2 11-6 4-5 10-8 9-5 5-4 3-4 1h-4l-5 3-6-1h-6l-4 3-3-1-8 3-7-7-3-6 2-1 1-2-1-4-5-8-2-8-2-3m87-11h-4m-16 20l-3 1-2 3-4-2-2-5h1l3-4 5-2 4 4zm741-6v-1h1zm-1180.8 29l-0.8-4v-3l-2-4-3.7-3-6.5-3-5.3-5h-4.4m0 0l-3.7 14m26.4 8l-4.5 6-3.6 2-4.1-1-3.2 1-4.9-3h-3.7l-2.8-4 0.4-9m0 0l-1.2 8v5l6.5 4-0.8 4 1.6 3 2 2 0.8 3-4.4 6-0.8 2-7.8 4-9.7 2h-6.5v3l-2 6 0.4 4-4.1 2h-3.7l-6-3-1.3 2 2.1 8 2 1 3.7-1v5l-4.1 1-4.5 5 0.8 3-3.2 6-6.5 3-2.9 7 1.7 4 2.8 3 4.9 2v2l-1.2 4-5.3 5-4.5 5v5l-4.9 3-2.4 6 0.8 5 3.7 7m1298.2-118l3 2 3-2v6l6 2 5-3 2 3v4l-2 3-5 1-1 8-4 6-4 4-3-4 2-6v-2l-7-4v-2l4-2 2-7-3-9-2-2-5-6 2-2 5 2v3l2 3zm-13 26l4 5 4-1 3 5-6 8-2 2-1 3-7 5-1 5-3 7-5 5-4 1-4-2-8-2-2-1 5-8 5-7 8-3 8-8 1-5 2-1 2-6zm-144 2l4 2 7-1h5v6l-3 8-3 1-1 4-6-1-3-7-1-4-3-7zm-1168.9 15l-0.8 3-3.6-1 1.6-2v-5l2-3 1.7 3-2.5 2zm-8.9 51l2.8-6 1.7 9h-3.7zm769.8-5l1 2 2-2 1 3 3-2h1l-1 3-2-1v3l-5-1v-1l-1-3zm-684.9 29l-2-2 3.6-6 5.7-1 1.7 3-7.4 4zm-5.3-5l1.7-3 3.6 1-2.8 4zm-44.3 27l-2.4 1-3.6-1-2.9 1-7.3-3 4.5-3h2.8l0.8-5 4.5-2v-1h-6.1l1.6-3 3.7-5 2 2 2.4-1m0 0h1.3l2.8 9 2.5 3 6.5 7 2 1-3.7 2-2-1-9.4-1m0 0v-20m760.5 4l-2 1 1-1zm-785.6 7l-0.4-3h3.6l3.7 3zm193.8 4l2.4-2 3.7 6zm215.7 2v-1zm-381.5 7l-0.8-3h4.5l0.8 4zm0 2h-7.3l-1.6-4 6.5-1z"/></svg>